/* XPM */
static char *_[] = {
/* columns rows colors chars-per-pixel */
"32 32 66 1 ",
"  c #80A70E",
". c #83AA0F",
"X c #83AA11",
"o c #84AB10",
"O c #84AB12",
"+ c #85AC11",
"@ c #85AC13",
"# c #86AD12",
"$ c #87AE13",
"% c #86AD14",
"& c #87AE15",
"* c #88AF14",
"= c #88AF16",
"- c #89B015",
"; c #89B017",
": c #8AB116",
"> c #8BB217",
", c #8AB118",
"< c #8BB219",
"1 c #8CB318",
"2 c #8CB31A",
"3 c #8DB419",
"4 c #8DB41B",
"5 c #8EB51A",
"6 c #8FB61B",
"7 c #8EB51C",
"8 c #8FB61D",
"9 c #90B71C",
"0 c #90B71E",
"q c #91B81D",
"w c #91B81F",
"e c #92B91E",
"r c #93BA1F",
"t c #92B920",
"y c #93BA21",
"u c #94BB20",
"i c #94BB22",
"p c #95BC21",
"a c #95BC23",
"s c #96BD22",
"d c #97BE23",
"f c #96BD24",
"g c #97BE25",
"h c #98BF24",
"j c #98BF26",
"k c #99C025",
"l c #99C027",
"z c #9AC126",
"x c #9BC227",
"c c #9AC128",
"v c #9BC229",
"b c #9CC328",
"n c #9CC32A",
"m c #9DC429",
"M c #9DC42B",
"N c #9EC52A",
"B c #9FC62B",
"V c #9EC52C",
"C c #9FC62D",
"Z c #A0C72C",
"A c #A0C72E",
"S c #A1C82F",
"D c #A2C92E",
"F c #A3CA2F",
"G c #A2C930",
"H c #A3CA31",
/* pixels */
"t2t0wfaAuqr>u9990,y7git8aniyita4",
"f40w70tibmxqherht4i2w0taigfnf,88",
"047iw0y76pq>pqsDi0j4040i7fca20j4",
"<itjj8y8:q*#q39xy0ctfw87080<%fGi",
"wGcgg28feh:6heeht4fynli0lX%028vS",
"aGc002tCzm9zxupdw;04vncgy&8i42yM",
"tti2=8icBZpBe*33w;0<fjjj70lw2t0t",
"t&y8O80=szrZ1oqr0<i2ywtta7twyy<t",
"t2w77ft21:3upq:+y4f4;2l<pNzrhkq>",
"i2wilScwhe9ruq66fwf<,4j06pp9qreq",
"4@2wgCvjbr59e65ugjc707i0uupe13er",
"7=0twjMGdq3rdq6dycVylw84u59q>1eq",
"0<yw4wyfurqsmhsN7gnyvtwy6$-56rs9",
"t4yw7t; eu9qhdpN2wa7fwfvpqquhbh9",
"iinjgVy@6dq1rr9s48y2w4acbBmkbms6",
"2tMgaAvwqmhqsp5978f80;0wuNbudhq3",
"6e6959s1udmhss31qu+9u-r3t0Ai28@i",
"rqqhe:96quxdpp>-qp9sr3se07gyta7y",
"erpxr:qqrehrqe:$eubberksa078ti7&",
"pbxd66u-6>935suqr9Bbqhku07&7igc7",
"BDxu59r.r1q66hs9p3xd9zd90w<wygHg",
"md9rres5p3uurxs1h3ue9hr57w80,8nt",
"963ersmdr-9erBNuzeeqerqq=,88=8cw",
"-uu95dBqFrr61hh6bdeer9qsyyvg4yj4",
"r11#>s9695u*9epsprqqhbp:wcMja84f",
"u5q36u9eq9z999eq#-5eudmFlMcy02,w",
"uqprrsuh63mkupdu69rr1*eZggt8w878",
"upsrpbbzq1mBhxxuspuq1:5p0020fay7",
"hbs6uNBpd3hbpku1pdhpupue00,tgfg7",
"bBu3qzx3e:9s9p5:rxBxkzde88=0yiMa",
"zz99equ3>:9d9u1q3edkkhdp28,tw8Mf",
"ue1ur>qe5rhmee-u935rpq354i0j0;a2"
};
