/* XPM */
static char *_[] = {
/* columns rows colors chars-per-pixel */
"80 78 25 1 ",
"  c #717517",
". c #727618",
"X c #727619",
"o c #717518",
"O c #717618",
"+ c #727719",
"@ c #737719",
"# c #72771A",
"$ c #727617",
"% c #727718",
"& c #717619",
"* c #737718",
"= c #707519",
"- c #717519",
"; c #707517",
": c #707518",
"> c #707417",
", c #707418",
"< c #73771A",
"1 c #71761A",
"2 c #717719",
"3 c #717617",
"4 c #727517",
"5 c #72761A",
"6 c white",
/* pixels */
"                                                     ..XXo                      ",
"                      oOOO                           ....                       ",
"                     .X+++.                                                     ",
"                    O+@##+Xo                                                    ",
"                   O+++##+Xo                $$                                  ",
"                   O%++&&&&o            ....**.                                 ",
"                    O+&=--o             ...+@@@.                                ",
"                     O===-o             ..X++@XXo                               ",
"                     ;::::;              OO&XXXO               ....ooo          ",
"                     ;;::>>               OO&&O                ..&&ooo          ",
"                                           :::;                OOo::,           ",
"                                          ;;;;;                OO::,>>    ..    ",
"                                           ;;;                 Ooo:>>    ....   ",
"                                                                         .@@@.  ",
"                                                                        .+@@+.  ",
"                                                                        OXXXX&o ",
"                                                                        OOOOOO  ",
"                                                                                ",
"                                                                                ",
"                                                                                ",
"                                                                                ",
"                                                    ...                         ",
"                                  ooo              .XXXXOo                      ",
"                              ...XXXX.            ..X<<#XOOOO                   ",
"                              ..X++XXO            ..X<<#XOOO                    ",
"  $.X..Ooo                    O&&&1&&:;;           o.XX&oo     ....             ",
"  .XXXX&oo                    OO&&&&::;;            oooooo     ....             ",
" o&XXX&-oo                    OOO&&:;;;              o  o     o....             ",
" o&&&&&=::                      o::                         ;;oXXoo             ",
" o&&&&=:::                      ;;;                         ;;o&Xoo             ",
"  :::::;                                                      ooo          ...  ",
"  ;;;;;;                                                                  o...  ",
"   ;;;;              o                                                   oo...  ",
"                    .......                                             ooo...  ",
"                    ...X+X.O                                             oo...  ",
"                     ..X++XOO                                             oo.   ",
"                       o&++OOO                                                  ",
"                       oo&&OOO                                                  ",
"                         oo                                                     ",
"                         ; OOO                                                  ",
"                         oOO++..                                         .....  ",
"                         oO+++X.                                        ......  ",
"           ......         oO2XX.                                        ...X..  ",
"          .......          oO&X.                                        ..XXXo  ",
"          o......           ooO.                                        OXXXo   ",
"          ooOOOOo              3   ..           .$  44.                  o-o    ",
"          ooo&Oo                   ...          .......                  ;:;;   ",
"          oooOO                    ...          .X@@++.                  ;;;>>  ",
"                                   ...          .X###+.                         ",
"                                   OOO          .XX+++.                         ",
"                         $.         O            o-.&O                          ",
"                      .....                       ooo                           ",
"                     o.@@XO         ;;            ;;                            ",
"                    $.X<#&o               ...                                   ",
"                   ...X55-:               ...                                   ",
"                      o--o                OOO                                   ",
"                                          OOO                                   ",
"                                                                                ",
"                                                                                ",
"                                                                                ",
"                                                                                ",
"44...              O.....                              ..                       ",
"4....              OO.....       $$$$                  ..                       ",
"OOOOO              OOO.+@..   ...***..                 ..                       ",
"OOOOO               OOO++..   ..X@@@*.3                ..                OOO$   ",
"                      OOOO    ..X++++%3                               .....+*$44",
"                       ;;    ....X+++O                                ....+@@*$4",
"                       ;;   .....XOOO                                 O..+++@%$4",
"  ...                      .....oo;;;     ...44                    ..O  O2++++O ",
" .....                     ....oo;;;;;   .....44                   ... ;OOOOOO  ",
"...@@+.33       o                       ...@@+..O                  ..Xoo        ",
"..@@@++.33     oo                       ..@@@++.OO                 ...oo        ",
"...@@+..O33    oo    OOO                ...@@+.OO                  ...oo        ",
" O...OOO......o     4.++...     ........ O...O                                  ",
"  O.OOOO...+...     4.++...     ........  O.O                                   ",
"   O    ..++...      .++...     ........   O                                    ",
"         OOOOO        OO        ...++.O                                         ",
"          OOO        ;;;;       ...++.                                          "
};
