/* XPM */
static char *_[] = {
/* columns rows colors chars-per-pixel */
"32 32 71 1 ",
"  c #6A641E",
". c #6E6C1C",
"X c #706F1F",
"o c #6F7218",
"O c #717517",
"+ c #717519",
"@ c #73781B",
"# c #5F4E3D",
"$ c #665B24",
"% c #685E2A",
"& c #604E39",
"* c #605034",
"= c #665B3C",
"- c #676026",
"; c #696426",
": c #6E6F21",
"> c #6A622B",
", c #716E26",
"< c #736F2E",
"1 c #717222",
"2 c #75742A",
"3 c #75782C",
"4 c #6D6533",
"5 c #726C35",
"6 c #77773E",
"7 c #7A7B3C",
"8 c #5F4F41",
"9 c #5E5247",
"0 c #5F564C",
"q c #615345",
"w c #665C43",
"e c #685A47",
"r c #62564A",
"t c #64594C",
"y c #6B5C4C",
"u c #655C52",
"i c #695F54",
"p c #696144",
"a c #6C634B",
"s c #776F42",
"d c #70674F",
"f c #777043",
"g c #7D7D4E",
"h c #6D6154",
"j c #676159",
"k c #6A645B",
"l c #6F685E",
"z c #716353",
"x c #736B52",
"c c #726758",
"v c #736A5C",
"b c #7C7B57",
"n c #77725D",
"m c #7C775C",
"M c #7F7A5A",
"N c #6C6862",
"B c #726B60",
"V c #7B6F62",
"C c #7B7264",
"Z c #7E7C67",
"A c #7C766A",
"S c #7D796C",
"D c #7F7B70",
"F c #827E62",
"G c #817B6C",
"H c #827E72",
"J c #808150",
"K c #858175",
"L c #878478",
"P c #8A867B",
"I c #8C897E",
/* pixels */
"OOOOOOOOOOO+OooooOoOOOOOOOOOOOOO",
"OOOOOOOOOOO255555555,oOOOOOOOOOO",
"OOOOOOOOOOXFHGCGGGFGF<OOOOOOOOOO",
"OOOOOOOOOOXFLVcvcccCHsoOOOOO+OOO",
"OOOOOOOOOO,FHVAHHGCVHfoOOOOOOOOO",
"OOOOOOOOOO@FHVHHHHAVLfoOO+OOOO++",
"OOOOOOOOOO,FLVSAAAVCPfXOOOOOOO++",
"OO+OOOOOO+1FIGAACVVHPfOOOOOOOOOO",
"OOOOOOOOOOomIIIPIPIIH5OOOOOOOOOO",
"OOOOOOOOOO.xAAAAAACCV%OO+OOOOOOO",
"+++OOOOOOO.xBvNBNNNlk4OO+OOOOOOO",
"+++OOOOOOO.akllvlvBlh4oOOO++OOOO",
"@@OOOOOOOOO>wrttttrq=.OOOOOOOOOO",
"OOOOOOOOO+Oo$#8qq88* OOOOOOOOOO@",
"OOOOOOOOO++O%utukkkwXOOOOOOOOOOO",
"OOOOOOOOOO+O;uuujklpXOOOOOOOOOOO",
"OOOOOOOOOOOO>t90uuip.OOOOOOO@OOO",
"OOOOOOOOOOOO;rrtrrjp.OOOOOOOOO@O",
"OOOO+++OOOOO%tu00uNa.OOOOOOOOOOO",
"OOOOO@OOOOOO-9rr9rjp.+++OOOOOOOO",
"OO@OO+OOOO+,%&qr9quw$ O+OOOOOOOO",
"OOOOOOOOOO6neurijkjr#=.OOOOOOOOO",
"OOOOOOOOO@gSiurijjir&w:OOOOOOOOO",
"OOOOOOOOOogHhttuurr8ra2OOOOOOOOO",
"OOOOOOOO@OJKahkkkrrqrx3OOOOOOOOO",
"@OOOOOOO++gKhlNkjuurtZ3OOOOOOOOO",
"OOOOOOOOO+JKziiutqr9dZ3O@OOOOOOO",
"OOOOOO@OO@JKCzdyiytaAZ2OOOOOOOOO",
"OOOOOOOOO+JPLKLHHHGHDZ3OOOOOOOO@",
"O@@OOOOOO+7MbbbMbbbbbg2OOOOO@OOO",
"O@@O@OOO+++1+++++++oO+OOOOOOOOOO",
"OOOOOOOO+++OO+@++o++OOOOOOOOOOOO"
};
