/* XPM */
static char *_[] = {
/* columns rows colors chars-per-pixel */
"32 32 121 2 ",
"   c #4E520E",
".  c #54570E",
"X  c #565A0F",
"o  c #595C0F",
"O  c #524F16",
"+  c #534E1B",
"@  c #4F5310",
"#  c #555513",
"$  c #595711",
"%  c #575A12",
"&  c #5C5D12",
"*  c #59561B",
"=  c #5D5A1B",
"-  c #615B1A",
";  c #5F620F",
":  c #5F6112",
">  c #636413",
",  c #686716",
"<  c #666813",
"1  c #6B6C15",
"2  c #65641A",
"3  c #69661D",
"4  c #66691C",
"5  c #6D6C1A",
"6  c #716F17",
"7  c #716E1A",
"8  c #6F7016",
"9  c #6F701A",
"0  c #717117",
"q  c #74731B",
"w  c #78761D",
"e  c #7A781E",
"r  c #5D5723",
"t  c #5A5429",
"y  c #635D24",
"u  c #645D29",
"i  c #6A6424",
"p  c #6D6C23",
"a  c #6C652B",
"s  c #736D2B",
"d  c #6E7124",
"f  c #747223",
"g  c #797721",
"h  c #7C7A23",
"j  c #75742D",
"k  c #7C7A2B",
"l  c #6C6B35",
"z  c #777A33",
"x  c #7A7A31",
"c  c #74763D",
"v  c #7C7D3D",
"b  c #756D40",
"n  c #7F7E44",
"m  c #7B7D4C",
"M  c #787550",
"N  c #827E26",
"B  c #7F8145",
"V  c #7F836A",
"C  c #858126",
"Z  c #888327",
"A  c #84812A",
"S  c #89832C",
"D  c #858433",
"F  c #84843C",
"G  c #898738",
"H  c #8B893B",
"J  c #828244",
"K  c #878944",
"L  c #898A48",
"P  c #8E904B",
"I  c #8F925D",
"U  c #939252",
"Y  c #93945F",
"T  c #99995E",
"R  c #868668",
"E  c #9C9D68",
"W  c #8A907A",
"Q  c #919472",
"!  c #999972",
"~  c #929378",
"^  c #9CA066",
"/  c #A2A465",
"(  c #A3A56A",
")  c #A7AB6F",
"_  c #A3A672",
"`  c #A6A874",
"'  c #AAAD73",
"]  c #A7AC7A",
"[  c #AAB07B",
"{  c #9C9C86",
"}  c #9D9C8A",
"|  c #A4AB85",
" . c #A8AC8C",
".. c #ACB283",
"X. c #B7BD87",
"o. c #B3BB8C",
"O. c #ACB395",
"+. c #B0B497",
"@. c #B2B69A",
"#. c #B3BC99",
"$. c #BBC395",
"%. c #BCC39A",
"&. c #BCC5A1",
"*. c #BEC9A4",
"=. c #C3CC9C",
"-. c #C4CCA3",
";. c #C6CFA8",
":. c #C6D1A3",
">. c #C9D3A6",
",. c #C6D2A9",
"<. c #CAD4AD",
"1. c #CCD8AB",
"2. c #D2DDAE",
"3. c #D2DEB3",
"4. c #D5E2B5",
"5. c #D7E4B9",
"6. c #D9E6BB",
"7. c #DCE9BD",
"8. c #DFEDC1",
"9. c #E1EFC2",
"0. c #E2F0C3",
/* pixels */
"9.9.9.9.9.9.9.9.9.9.9.7.7.7.1...( %.4.5.6.8.9.9.9.9.9.9.9.9.9.9.",
"9.9.0.9.9.9.9.9.0.9.7.0.0.6.' H D U _ %.7.8.9.9.9.9.9.9.9.9.9.9.",
"9.9.9.9.9.9.9.9.7.0.0.4.=.$.T S C k h U :.6.8.0.9.9.9.9.9.9.9.9.",
"9.9.9.9.9.0.9.9.9.4.=./ H D A C N k q k U ' 2.0.9.9.9.9.9.9.9.9.",
"9.9.9.9.9.9.9.9.2./ G C C C N C q 8 8 > 9 A ( 2.9.9.9.9.9.9.9.9.",
"9.9.9.9.9.9.7.8.=.G e C Z C w w h w w < 9 h A ' 6.9.9.9.9.9.0.9.",
"9.9.0.9.9.8.9.4.$.F w N Z C N w q 5 2 : , 1 9 K >.9.9.9.9.9.9.9.",
"9.9.9.9.9.9.4./ H h e q N h h w : % + % > w g F =.9.9.9.9.9.9.9.",
"9.9.9.9.8.8.*.K e h w 8 q w q q : % # X : > 9 v o.4.8.8.8.8.8.9.",
"0.9.0.7.5.8.=.L h q 4 < 1 q q 1 : ; > 2 5 % < 9 z o.8.8.8.8.9.9.",
"9.9.9.4.3.5.%.L g w q 8 6 q q 5 < 8 9 i = ; > 1 9 E 4.8.8.8.9.9.",
"9.9.9.4.,...B p q g g w > > < 1 9 8 5 y t > 1 q p v ..8.5.8.8.0.",
"9.9.9.<.| x 4 : 4 2 9 5 = & < 8 q q > + * < > > 4 i J o.5.8.8.0.",
"9.9.0.*.I g 9 < : : > > = * < 1 , & + + @ : $ % > q f B o.8.8.0.",
"9.9.9.#.n h g 8 1 < 9 8 1 > > < $   % #   . X : < 8 w 5 P 4.0.0.",
"9.9.9.] j f h h 9 8 w q 0 1 < ; .   > > ; ; > < 8 8 q q D 2.0.0.",
"9.9.9.| c p f f 2 6 w w 6 1 1 - X o ; < > = & > < , > 5 H 2.0.0.",
"9.9.9.O.V c p p y 3 5 3 y - $ $ = < 1 8 , 2 & - r = % f R 4.0.0.",
"9.9.9.O.W V l 4 & y 6 , = t * O > 1 0 < & < < < 2 > 4 k ^ 6.0.9.",
"9.9.9.O.W m d 9 > , < < 1 - - ; o 5 > $ $ > < 1 q j v [ >.9.9.9.",
"9.9.9.&.Q k g q q 6 < ; > < < 6 < ; $ O O o 1 q x ' :.6.9.9.9.9.",
"9.9.8.*.Y k w e e 6 < > - , 6 6 1 < - + . & 1 w E 4.9.8.8.9.9.9.",
"9.9.9.3.o.U N N N j 7 6 3 i i 7 w 7 - $ & > f D X.7.9.9.9.9.9.9.",
"9.9.9.6.6.=.` / J N j 5 3 u i f s a - , 6 q U =.4.0.9.9.9.9.9.9.",
"9.9.9.7.7.7.7.6.-.=.E K R P N M M b q 0 w G $.7.0.0.9.9.9.9.9.9.",
"9.9.9.8.8.8.9.9.9.9.5.3.6.4.#.Q R ! ` U ) =.4.9.7.0.9.0.9.9.9.9.",
"9.9.9.9.9.9.9.9.9.9.9.9.9.8.6. .~ -.6.4.7.9.9.9.0.0.9.9.9.9.9.9.",
"9.9.9.9.9.9.9.9.9.9.9.9.9.8.6.O.{ -.8.7.8.9.0.9.0.0.9.9.9.9.9.9.",
"9.9.9.9.9.9.9.9.9.9.9.9.9.8.8.+.{ <.8.9.9.9.9.9.0.9.9.9.9.0.9.9.",
"9.9.9.9.9.9.9.9.9.9.9.9.9.8.6.@.{ ,.9.9.9.9.9.9.9.9.9.9.9.9.9.9.",
"9.9.9.9.9.9.9.9.9.9.9.9.9.9.8.@.} ;.9.9.9.9.9.9.9.9.9.9.9.9.9.9.",
"9.9.9.9.9.9.9.9.9.9.9.9.9.9.3.O.} -.9.9.9.9.9.9.9.9.9.9.9.9.9.9."
};
