/* XPM */
static char *_[] = {
/* columns rows colors chars-per-pixel */
"32 32 219 2 ",
"   c #5E7701",
".  c #636B02",
"X  c #696A0C",
"o  c #657903",
"O  c #6C7706",
"+  c #73780C",
"@  c #646D16",
"#  c #726E17",
"$  c #6E7914",
"%  c #787F17",
"&  c #7E761D",
"*  c #7A7819",
"=  c #837C1B",
"-  c #8D7B15",
";  c #8D7C24",
":  c #748306",
">  c #75900B",
",  c #788710",
"<  c #758C10",
"1  c #7D8A1C",
"2  c #748916",
"3  c #7E9112",
"4  c #81950F",
"5  c #89831D",
"6  c #888B16",
"7  c #938316",
"8  c #93851C",
"9  c #948C1B",
"0  c #98851F",
"q  c #8B9D1D",
"w  c #849718",
"e  c #93951D",
"r  c #A0921E",
"t  c #84A70B",
"y  c #84AB0C",
"u  c #83B20F",
"i  c #89B90C",
"p  c #89B70F",
"a  c #86AB12",
"s  c #89AE15",
"d  c #8AA51D",
"f  c #85AF1A",
"g  c #8CAE1A",
"h  c #94AE1F",
"j  c #87B214",
"k  c #8BB315",
"l  c #87BB16",
"z  c #8EB916",
"x  c #8EB41B",
"c  c #8DBA1A",
"v  c #91B515",
"b  c #94BB15",
"n  c #92B51C",
"m  c #93BB1C",
"M  c #99BB1E",
"N  c #878E24",
"B  c #898829",
"V  c #948525",
"C  c #948C26",
"Z  c #9B8D24",
"A  c #948D29",
"S  c #9D8D2A",
"D  c #8C9522",
"F  c #889620",
"G  c #969125",
"H  c #939A22",
"J  c #9D9D23",
"K  c #9B942C",
"L  c #9C9C29",
"P  c #989529",
"I  c #8D8230",
"U  c #9B8E32",
"Y  c #938932",
"T  c #829931",
"R  c #949333",
"E  c #A28C23",
"W  c #A18F29",
"Q  c #A08420",
"!  c #A59524",
"~  c #A39B25",
"^  c #A4942B",
"/  c #AA952C",
"(  c #AC9A2D",
")  c #A89828",
"_  c #B19D2F",
"`  c #A28F31",
"'  c #A69730",
"]  c #AC9C32",
"[  c #A49C39",
"{  c #A89737",
"}  c #B39E32",
"|  c #B29E3D",
" . c #B39733",
".. c #89A324",
"X. c #8DA72A",
"o. c #93A325",
"O. c #94AD25",
"+. c #9CAD25",
"@. c #9EA32B",
"#. c #9DAC29",
"$. c #8EB023",
"%. c #94B423",
"&. c #9AB624",
"*. c #95BA22",
"=. c #99BD24",
"-. c #93B429",
";. c #9CB42D",
":. c #95BB2A",
">. c #9ABC2B",
",. c #9DB631",
"<. c #9DBB31",
"1. c #9BB83A",
"2. c #AFA02D",
"3. c #A6AD2B",
"4. c #A5A52A",
"5. c #B3A22E",
"6. c #A2B12A",
"7. c #ACA235",
"8. c #ABAC32",
"9. c #AEA239",
"0. c #B3A434",
"q. c #BAA335",
"w. c #B4A33B",
"e. c #B9A53C",
"r. c #B4AB39",
"t. c #BBAC3C",
"y. c #BBAA36",
"u. c #A5B333",
"i. c #AFBB37",
"p. c #A7BC35",
"a. c #BCB33D",
"s. c #BAB037",
"d. c #C1AA3E",
"f. c #C1B23F",
"g. c #94C11D",
"h. c #97C21A",
"j. c #94C222",
"k. c #9CC325",
"l. c #9CC823",
"z. c #9DC22A",
"x. c #9DC829",
"c. c #A2C42D",
"v. c #A2C92B",
"b. c #A2C425",
"n. c #A3C332",
"m. c #A8C233",
"M. c #A4C932",
"N. c #AFC139",
"B. c #B5C73D",
"V. c #B4A444",
"C. c #BBA642",
"Z. c #BDAB44",
"A. c #BDAC4A",
"S. c #BEB348",
"D. c #A8A345",
"F. c #C0AE43",
"G. c #C0AE48",
"H. c #C3A642",
"J. c #C3B444",
"K. c #C9B947",
"L. c #C4B34B",
"P. c #C9B54D",
"I. c #CCBB4C",
"U. c #D3B84D",
"Y. c #C4B651",
"T. c #CCBB53",
"R. c #CBBB5C",
"E. c #C9B457",
"W. c #D2BE57",
"Q. c #D4BD5D",
"!. c #D2BE60",
"~. c #D3BF69",
"^. c #BFC34A",
"/. c #CDC04D",
"(. c #D0C04F",
"). c #D3CA4B",
"_. c #CCC555",
"`. c #CEC15A",
"'. c #CFCF55",
"]. c #D4C257",
"[. c #D3C35B",
"{. c #D9C75E",
"}. c #D6C95B",
"|. c #DBCB5D",
" X c #CECB60",
".X c #D5C464",
"XX c #D9C663",
"oX c #DBCA64",
"OX c #D5C46A",
"+X c #D9C66B",
"@X c #DBCA6A",
"#X c #D7CF64",
"$X c #DED067",
"%X c #DDCB73",
"&X c #DBC976",
"*X c #E0CE6C",
"=X c #E3CA63",
"-X c #E2D26A",
";X c #E8D36D",
":X c #E0D061",
">X c #E1CE79",
",X c #E1CC71",
"<X c #E4D373",
"1X c #E8D576",
"2X c #ECDB74",
"3X c #E5D37C",
"4X c #EBD77E",
"5X c #EDDA7D",
"6X c #E1DA70",
"7X c #E6D383",
"8X c #EAD784",
"9X c #EDDA84",
"0X c #E9D689",
"qX c #EDDB88",
"wX c #F0DE83",
"eX c #F1DE8C",
"rX c #F0DC95",
"tX c #F5E388",
"yX c #FAE897",
/* pixels */
"*.x *.n n =.=.c.*.*.*.k m k b b b t b x n k.x x >.z.>.:.<.*.j c ",
"*.n n n n *.*.=.v.c.k.n k.M h.g.x x *.s x n *.=.M n :.:.:.x j c ",
"n n x =.*.n *.n v b n v k.x *.M.:.:.*.x *.*.n m b M k.*.k *.k.j ",
"x *.%.=.=.n *.n z b k t %.h %.p.,.,.;.;.>.x x m b v M v a :.x.*.",
"%.M.z.=.=.x x *.c j.n d N.i.@.7 9 e e #.;.>.:.f M t y n k k >.M.",
"=.v.z.%.n x n z.c.&.;.i.'.f.2.} } } 0.J 6 o.,.<.*.h n n n x *.c.",
"n =.*.n s x %.=.8.J 4.a.I.0.| Q.W.q._ q.J._.r.~ w <.n.n n M n *.",
"n s *.n a n n a E / G.{.;XXX[..XK.q.} d.d.e.Q  .o X.;.n n n z n ",
"%.h c j v &.u.6 9.r.|.[.%XyX%X X{.T.( ( ] w.^ W Z.[ . 1.:.g.j.f ",
">.x m m c.B./.7.`.2X}.<XqX7XeX#X@XoXXXP.w.L.w.- w.S . 2 -.c *.:.",
"g a k n h 3.y.e.Y.6X#XR.&X0XqX@XtX@XG.T.J.] 7 0 E ] A O > x *.x ",
"x f *.&.+.~ _ H.@X.XwX7X7XrX>XtX>XwXOXF.J.I.t.e. .^ B 6 o ..%.j.",
":.j n &.3.t.P.=X!.%XqXyXqX%XwX9X8X>X~.T.F.{.|.P.y.e.| R . ..n.k ",
"j k c.i.8.e.| C.A.<XqX0XOXOXyX%XwX+X.X1XW.w.w.XXU.C.9.R % o %.m ",
"j.*.m.6.e 9.Z.Y.`.OX7X7XR.R.@X@X5XwX*X*X4X*XC.' y.0.A X @ 2 >.l ",
"z x m.u.@._.[.`.-XwXeX8XOXXX5X3X5XXX.X1X!.| V ; 9 ~ A T @ 1 -.i ",
"p x.x o.#XC.[  X;XtX,X%X0X8XyXrX~.4X!.Q.2X].t.Z.( 9 ' [ R 2 d l ",
"g.y -.u.8 w.oX6X_.}.Y.@XR.3X7X7X3X+X| ( (.].0.w.] 0.5 5 X 1 $.g.",
"M c p.;.L ;X;XL./.a.a.[.Z.R.E.<X4X1XL.E Z.$Xy.7 ( 7.8 & X F $.y ",
"b v.=.;.a.C.V w.K.J.oX2X2X.X!.5X<X*X[.T.K.P.] ] J.r.A.D.N < n.j ",
"b.v.c.h 3.! e..XG.T.XX1X1X*X<X4XQ.T.T.$XK.( e.{.r.S U B % < M.j.",
"b.g.k.g 3.a.oXA.{ Z.Z.<XE.1X,X!.w.C.0.(.y.! ] J./.A.Y & $ ;.>.c ",
"m u l n 6.J G S ].P.H.oXe.].P.W.Z.( r f.y.! 7 Z 9 S Y # O ;.*.j.",
"k c l c +.3.K R.f.! 5.K.d.0.5.|.`.J.0._ 2.I.w.^ ~ * ; # 1 -.*.c ",
"M v u k g q K { V C [.}.t.s.f.).L.`.9.w.Z 7.|.Z.U S + O O.>.j j.",
"=.n z z x d H N V V.A.K ] J.} } t.F.! } / Z w.A.A P D q #.%.j c ",
"n &.m c n :.+.q 5 C V S C.|  .Q.q.} / W { U ; & : 3 q O.%.$.c x ",
"&.=.M z g.x.M.&.o.D H L G 5 ' E.E S [ = = B B $ $.*.%.z.z.*.*.$.",
"z.c.*.c g.l.v.g.z.:.*.%.4 6 3.e 6 + F , < ..<.-.m m s n j.*.:.n ",
"z.v.*.n m m g.j l u m x.=.n =.h p.>.M.>.v.h.h.i j c j x *.*.z.>.",
"*.j.x *.n n n b y l m c c b b n y =.M k.b h.h.b a n x *.*.n k.*.",
"g.*.x &.&.h M =.*.n =.b.=.n s =.%.&.s c.%.%.%.%.%.&.n >.n k *.x "
};
