/* XPM */
static char *C[] = {
/* columns rows colors chars-per-pixel */
"32 32 147 2 ",
"   c #2A3107",
".  c #333400",
"X  c #3F3100",
"o  c #363900",
"O  c #3E3900",
"+  c #3F3F09",
"@  c #283710",
"#  c #422500",
"$  c #482A08",
"%  c #403700",
"&  c #443B01",
"*  c #443113",
"=  c #403C16",
"-  c #364100",
";  c #3B4500",
":  c #365400",
">  c #3D402D",
",  c #4B4E00",
"<  c #49470A",
"1  c #534B00",
"2  c #53430F",
"3  c #59460C",
"4  c #4C5A00",
"5  c #555602",
"6  c #5C5E00",
"7  c #57540D",
"8  c #5F5D08",
"9  c #524910",
"0  c #5B4B10",
"q  c #4C5111",
"w  c #665209",
"e  c #605D0E",
"r  c #627E05",
"t  c #617D17",
"y  c #797826",
"u  c #77742C",
"i  c #747F31",
"p  c #80691D",
"a  c #88771B",
"s  c #807E19",
"d  c #847522",
"f  c #8E7920",
"g  c #748200",
"h  c #6F8D11",
"j  c #768E14",
"k  c #739313",
"l  c #7EA50E",
"z  c #7EAD1F",
"x  c #718023",
"c  c #7A8620",
"v  c #748920",
"b  c #7B9125",
"n  c #7E9C2A",
"m  c #91891A",
"M  c #81921F",
"N  c #91951D",
"B  c #9A9619",
"V  c #A1930E",
"C  c #82A60E",
"Z  c #83AB0D",
"A  c #88AE0B",
"S  c #92A606",
"D  c #92AE0C",
"F  c #98AE0B",
"G  c #8DB50C",
"H  c #97BD06",
"J  c #92BE0D",
"K  c #86AC12",
"L  c #89AE15",
"P  c #84AE1A",
"I  c #8AAD1B",
"U  c #91AF11",
"Y  c #91AF1D",
"T  c #87B215",
"R  c #8BB216",
"E  c #8FBA13",
"W  c #8EB31A",
"Q  c #8ABC1D",
"!  c #93B616",
"~  c #9AB415",
"^  c #94BB15",
"/  c #9EBE13",
"(  c #91B61D",
")  c #9AB41C",
"_  c #92B91E",
"`  c #9ABD1C",
"'  c #A1BF07",
"]  c #A0B91D",
"[  c #9C952B",
"{  c #A29C22",
"}  c #AF9E36",
"|  c #81A126",
" . c #85A925",
".. c #8AAC24",
"X. c #8AA32E",
"o. c #87AF2B",
"O. c #89AC2B",
"+. c #97A124",
"@. c #9CA32F",
"#. c #94AF2A",
"$. c #8DB025",
"%. c #8DB22B",
"&. c #92B521",
"*. c #95BB21",
"=. c #99BE25",
"-. c #92B62B",
";. c #95BC2E",
":. c #9BBC29",
">. c #8FB431",
",. c #8EB830",
"<. c #93B230",
"1. c #9CBC32",
"2. c #9EB63A",
"3. c #99B93A",
"4. c #A1B427",
"5. c #A0BF26",
"6. c #A5BB2D",
"7. c #ABBB2D",
"8. c #B4B52D",
"9. c #ABB731",
"0. c #A2B935",
"q. c #BCBB3D",
"w. c #C5BA3A",
"e. c #8FC004",
"r. c #91C501",
"t. c #95C30C",
"y. c #92C416",
"u. c #9DC216",
"i. c #9BC61E",
"p. c #ACCD1C",
"a. c #BBC413",
"s. c #96C124",
"d. c #9BC126",
"f. c #9DC329",
"g. c #9DC330",
"h. c #A4C627",
"j. c #A1C62D",
"k. c #A2C92E",
"l. c #BEC42E",
"z. c #A6C635",
"x. c #A4C831",
"c. c #CAC62F",
"v. c #D0C930",
"b. c #9E944C",
"n. c #BCBC4A",
"m. c #CBBA44",
"M. c #B0C647",
/* pixels */
"*.W *.( &.=.*.j._ _ _ R *.W _ ( ( L *.( =.*.&.Y *.j.*.&.=.( *.( ",
"=.W ( ( ( ( *.*.f.d.f._ s._ _ s._ ( *.I ( ( *.=.*.=.=.5.=.I ( ( ",
"( ( ( *.&.( *.Y W =._ R =._ =.k.*.( :.( ( ( ( *.Y =.:.*.Y ( =.( ",
"I *.( =.=.( *.( R _ L K Q W W d.) ( f.( =.( ( ( ( ( ( ! K =.x.*.",
"( x.:.=.=.W ( =._ s.R Q s._ _ s.*.W *.*.5.:.*.( :.K L ( Y ( h.j.",
"*.k.f.( ) Y &.j.d.f.W d.d._ *.=.&.L ( ( :.j.f.=.) L ( *.W I &.f.",
"*.) *.Y L ( &.:.f.k.s.f.*.L W W *.L ( I =.:.f.:.( ( :.( Y *.( &.",
"&.L *.( K ( ( R =.d._ g.R Z ( *.( W *.( _ ( ( _ *.( *.( _ ( ( *.",
"*.I ( ( ( *.&.( D ! R ;.r.-.G X.0.S 4.#.Z T :.F *.f.f._ s.d._ R ",
"*.( ( *.:.x.f.( =.] ..y.i.-.S 4 < e 8 v ..P f.^ W =._ _ _ _ _ ( ",
"( K ( ( =.j.h.:.h.! ^ %.( ~ 5 n.l.q.m 6 j o.Q R _ _ =._ W W _ _ ",
"( L &.) ( =.f.k.=.J L $.p.< 8.w o & d [ - h =.-.=.W W Q R R _ _ ",
"( I *.( ( ( &.:.E ;.i.` 6.7 c.# M u & b.. b U ` W K R W W _ =.Q ",
"( ( &.&.( *.L C $.t.P d.) , { a   = 2 y ; j 0.7.s._ _ _ d.f.=.W ",
"*.*.5.=.=.j.*.K ;.E e.O.=.7.2 w.[ N s ; r  .:.` f.f.f.d.d.f.=.W ",
"( ( j.=.*.j.6.( =.s.s.y.` 7 a.d * % & i >.z %.^ =.f.f._ s.s._ W ",
"W _ W ( R ( =.R y.&.x.9.1 m.3 % h n k $.h.A _ ! _ ( j.*.Y ( K *.",
"_ _ _ s._ T ( ( ^ &.2.5 v.V { u : n ;.=.! G d.( ( ( =.( &.*.( *.",
"_ _ _ f._ R Q ( _ 3.4 n.p $ 1 ; k 1.z.d.^ _ h.( *.( ( ( ) *.( L ",
"=.f.f.s.W _ *.R =.Z o , } f o y I ( d.d.` _ f.f.( ( L ( *.=.:.Y ",
"f.k.d._ ( _ _ Z &.&./ . 7 B g @ R ! d.` ! ` _ ( ( ( ( ( *.=.x.=.",
"f.s.Q *._ _ =.R H -.-.0.[ + > k s.! _ ( _ j.:.! ( ( ( ( W ( j.&.",
"( _ W _ _ s.d.=.u.l >.J :.' f.f.=.( &.=.=.( ( _ L I ( ( L ( :.( ",
"R _ _ _ W s.f.( M.J y.Q G 1.u.$.h.=.=.&.( *._ ` *.*.:.=.( ( =.( ",
"_ R W K R =.W W W W _ T W _ =.=.=._ _ _ s.d.s.R ( 5.f.=.*.( ( *.",
"=.W _ R W =.Q _ _ _ d._ Q _ _ _ K R W _ =.s.f.x.:.j.f.*.( ( I ( ",
"_ Q *._ _ s._ s.W W f.d._ =.=._ W W _ *.R K _ f.*.:.) ( ( ( ( ( ",
"_ =.=._ =.d.d.f._ W d.j.=.f.s._ *.=._ Q W R W *.( ( W &.=.=.( ( ",
"s.f.=.W _ d.j.=.=.R =.f.*.d.=.R _ s.s.=._ =._ _ ( ( ( ( =.=.:.Y ",
"d.f._ W _ f.d.R _ R Q *.Q _ W R _ f.f.d.s.d.=._ ( ( L ( *.*.j.*.",
"d.d.Q _ _ _ _ W R R ( s.( _ R _ W _ s.d.s.=.=.*.Y ( ! &.&.( 5.=.",
"=._ R *.*.R _ _ ( _ s.f._ _ T s.W W W _ =.( R ! ( &._ :.( L *.I "
};
