/* XPM */
static char *C_1[] = {
/* columns rows colors chars-per-pixel */
"32 32 151 2 ",
"   c #362525",
".  c #3B2325",
"X  c #362728",
"o  c #3E2528",
"O  c #3E2928",
"+  c #36302B",
"@  c #3E322D",
"#  c #411C22",
"$  c #432326",
"%  c #492427",
"&  c #442529",
"*  c #4C262B",
"=  c #432C2B",
"-  c #4C2B2C",
";  c #52262D",
":  c #58272F",
">  c #512B2C",
",  c #59292E",
"<  c #45362C",
"1  c #4C352D",
"2  c #54352F",
"3  c #533A2E",
"4  c #412F30",
"5  c #482930",
"6  c #562731",
"7  c #5B2731",
"8  c #542D32",
"9  c #5E2932",
"0  c #4D3234",
"q  c #453A33",
"w  c #4C3B35",
"e  c #423C3B",
"r  c #4F3A38",
"t  c #553135",
"y  c #5B3136",
"u  c #533C35",
"i  c #5E3F36",
"p  c #563638",
"a  c #5D343A",
"s  c #563B39",
"d  c #583C3B",
"f  c #602932",
"g  c #612E38",
"h  c #623E32",
"j  c #63343C",
"k  c #4E4138",
"l  c #564233",
"z  c #55493E",
"x  c #5F4C3E",
"c  c #634435",
"v  c #644935",
"b  c #684937",
"n  c #694F3A",
"m  c #6C523B",
"M  c #72513A",
"N  c #5C3A41",
"B  c #4F4D44",
"V  c #544644",
"C  c #574B42",
"Z  c #5D4F42",
"A  c #544F4A",
"S  c #5B4E4E",
"D  c #5F5044",
"F  c #5E5152",
"G  c #5E5D50",
"H  c #624443",
"J  c #644F45",
"K  c #6B444D",
"L  c #614D4F",
"P  c #6C4D4D",
"I  c #645345",
"U  c #695144",
"Y  c #66564A",
"T  c #675849",
"R  c #6C594D",
"E  c #7C5F43",
"W  c #6D4952",
"Q  c #724A52",
"!  c #645254",
"~  c #665F55",
"^  c #6D5C52",
"/  c #6E565A",
"(  c #755654",
")  c #785655",
"_  c #725E51",
"`  c #715F59",
"'  c #746149",
"]  c #756355",
"[  c #7C6756",
"{  c #756E5C",
"}  c #786E5E",
"|  c #78735D",
" . c #725962",
".. c #766E60",
"X. c #7A6961",
"o. c #767262",
"O. c #787262",
"+. c #7E7961",
"@. c #7E7570",
"#. c #816345",
"$. c #8B6B4A",
"%. c #906E4B",
"&. c #94704B",
"*. c #846C59",
"=. c #80646C",
"-. c #846E68",
";. c #8C7562",
":. c #937A64",
">. c #847673",
",. c #847C76",
"<. c #8B727B",
"1. c #887C78",
"2. c #937C73",
"3. c #7F8070",
"4. c #898977",
"5. c #8C8B7B",
"6. c #8E947C",
"7. c #979376",
"8. c #92957B",
"9. c #969B7E",
"0. c #A1846B",
"q. c #A58872",
"w. c #A88971",
"e. c #A38A7F",
"r. c #8C8380",
"t. c #938C85",
"y. c #9B8E8C",
"u. c #959285",
"i. c #959B82",
"p. c #A99084",
"a. c #A99A98",
"s. c #9BA184",
"d. c #A3AC90",
"f. c #ABB594",
"g. c #AFB69B",
"h. c #B3BD9D",
"j. c #BAAAA6",
"k. c #BCC3A6",
"l. c #BDC8A4",
"z. c #C5CEAF",
"x. c #C6D3AC",
"c. c #C8D4AD",
"v. c #CCD9B2",
"b. c #D2DEB5",
"n. c #D4E1B7",
"m. c #D5E2B9",
"M. c #D9E6BC",
"N. c #DCE9BE",
"B. c #DFEDC0",
"V. c #E1EFC2",
"C. c #E3F1C4",
/* pixels */
"V.V.V.V.V.V.V.V.V.V.V.V.V.V.V.V.V.V.C.C.C.C.B.V.C.B.B.V.V.V.C.B.",
"V.V.V.V.V.V.V.C.V.C.V.V.V.V.V.C.V.C.b.g.z.M.C.B.V.V.C.B.V.V.V.V.",
"V.V.V.V.C.C.C.N.c.n.C.C.C.C.C.C.C.h.,.1.t.k.C.C.V.C.B.C.V.B.V.V.",
"V.V.V.V.C.v.s.O.V ^ 6.9.i.9.8.8.9.G S F A ~ s.M.C.B.C.B.V.C.V.V.",
"V.V.V.V.m.o.X . f * < E E 3 * ; ; ; ; & n #.#.7.M.V.V.V.V.V.V.C.",
"V.V.V.C.l.r = . f * n &.#.- 9 9 9 f 9 ; n &.%.' x.C.C.V.V.V.V.B.",
"V.V.C.C.f.d 8 & 9 * m #.t , 9 9 9 9 9 9 > m &.' x.C.V.V.C.V.V.V.",
"V.V.B.C.o.8 t . - % l 2 : f 9 6 9 9 9 9 9 > s z x.C.V.V.B.V.V.V.",
"V.V.V.B.{ h c < x k o , 9 7 - u - 6 9 9 9 g N A v.C.V.V.V.V.V.V.",
"V.V.C.B.+.M 3   1 O % 9 - = Z I Z u > 9 9 Q =.4.B.B.V.V.V.V.V.V.",
"V.V.V.B...8 8 $ f * % 9 - C Y I Y Y 0 9 9 K <.@.v.C.V.V.V.V.V.V.",
"V.V.C.B.O.& y & f * * , - Y Y I T Y 0 7 9 j Q ! x.C.V.V.V.V.V.V.",
"V.V.B.B.O.o p & 9 * % f > _ ' *.;._ 5 ; , f 9 s x.C.V.B.V.V.V.V.",
"V.V.C.V.O.a p % f * % , - ;.*.T R :.@ r * f 9 s x.C.C.C.V.V.V.V.",
"V.V.V.B...j t % f * % f - :.:.z + ] D R > 9 , s x.C.B.V.V.B.V.C.",
"V.V.V.B...j j % f ; % 9 - :.w.*.C R q.Y % f f i c.C.C.B.C.C.V.B.",
"V.V.C.B.O.j y . - $ % f % T :.Y ] 0.:.= , j 9 s c.C.V.V.V.V.V.V.",
"V.V.V.B...% i q x k $ 9 7 4 [ ;.;.R < * y W N w c.C.V.V.V.V.V.V.",
"V.V.C.B.o.v b . = = 1 > 9 ; = - * 5 6 y W / J D c.C.V.V.V.V.V.V.",
"V.V.B.B.| 2 8 o # * m M - 9 9 9 f 9 9 Q  .U $.' c.V.V.V.V.V.V.V.",
"V.V.V.B.} 8 8 o $ & n $.s , 9 9 9 9 j =./ E $.I d.N.C.B.V.V.V.V.",
"V.V.C.B.o.8 o X $   3 n v o * % 5 # 0 L q n n e r.u.v.C.V.V.V.V.",
"B.C.V.B.o.t 5 & - = s 0 . . .   o H H H H 5 = V j.a.u.V.V.V.V.V.",
"V.B.C.C.d.0 a o t _ e.2.@ <.r.e ` p.X.` -.2...k t.u.h.C.V.V.V.V.",
"C.B.V.C.x.B 0 o o p ( ( d >.y.@ W ( P P P ) ) V i.v.V.V.V.V.V.V.",
"V.V.V.V.N.c.i.6.5.t.4.5.5.3.u.5.5.5.5.5.5.5.5.i.M.C.V.V.V.V.V.V.",
"V.N.C.V.V.V.C.C.C.C.C.C.C.V.B.C.C.C.C.C.C.C.C.C.V.V.V.V.V.V.V.V.",
"V.C.C.V.V.V.V.V.V.V.C.V.C.C.B.V.V.C.V.V.C.C.V.V.V.V.V.V.V.V.V.V.",
"V.V.V.V.V.V.V.V.V.V.V.V.V.V.V.V.C.V.V.V.V.V.V.V.V.V.V.V.V.V.V.V.",
"V.V.V.V.V.V.V.V.V.V.V.V.V.V.V.V.V.V.V.V.V.V.V.V.V.V.V.V.V.V.V.V.",
"V.V.V.V.V.V.V.V.V.V.V.V.V.V.V.V.V.V.V.V.V.V.V.V.V.V.V.V.V.V.V.V.",
"V.V.V.V.V.V.V.V.V.V.V.V.V.V.V.V.V.V.V.V.V.V.V.V.V.V.V.V.V.V.V.V."
};
