/* XPM */
static char *C_2[] = {
/* columns rows colors chars-per-pixel */
"32 32 147 2 ",
"   c #372322",
".  c #3D2425",
"X  c #3B2925",
"o  c #3D2629",
"O  c #3D2B2B",
"+  c #3C3128",
"@  c #3E3635",
"#  c #451D25",
"$  c #432226",
"%  c #452429",
"&  c #4A252A",
"*  c #452B2B",
"=  c #4B2A2D",
"-  c #53262D",
";  c #5C272F",
":  c #54282D",
">  c #5A282F",
",  c #42312C",
"<  c #4D332C",
"1  c #55342D",
"2  c #5B352F",
"3  c #472930",
"4  c #4E2E31",
"5  c #5B2731",
"6  c #532D32",
"7  c #5D2932",
"8  c #4A3233",
"9  c #453A31",
"0  c #4B3937",
"q  c #463F3B",
"w  c #523434",
"e  c #5A3235",
"r  c #533B33",
"t  c #593C33",
"y  c #573338",
"u  c #5D3339",
"i  c #523C3B",
"p  c #5C3E3D",
"a  c #602A33",
"s  c #64353D",
"d  c #4D4536",
"f  c #4B423A",
"g  c #574037",
"h  c #5C4333",
"j  c #54433C",
"k  c #59443B",
"l  c #59493F",
"z  c #644636",
"x  c #604438",
"c  c #664D3B",
"v  c #6D533C",
"b  c #70563E",
"n  c #78583E",
"m  c #4D4942",
"M  c #574041",
"N  c #5E4F44",
"B  c #594949",
"V  c #5D5652",
"C  c #614443",
"Z  c #6A424A",
"A  c #674D4C",
"S  c #694B4C",
"D  c #645345",
"F  c #65554A",
"G  c #66584A",
"H  c #6D5D4F",
"J  c #745D45",
"K  c #7A5D41",
"L  c #705B4C",
"P  c #6C4B53",
"I  c #695556",
"U  c #6B565A",
"Y  c #735252",
"T  c #72515A",
"R  c #7B575D",
"E  c #646056",
"W  c #6D6255",
"Q  c #6D6459",
"!  c #6C6B59",
"~  c #756252",
"^  c #7B6655",
"/  c #736A55",
"(  c #72635A",
")  c #706A58",
"_  c #7B6858",
"`  c #745760",
"'  c #7D5F68",
"]  c #706363",
"[  c #736964",
"{  c #7E6A60",
"}  c #796E6E",
"|  c #767663",
" . c #787363",
".. c #7E7A67",
"X. c #7D7D6A",
"o. c #7F7171",
"O. c #836546",
"+. c #886747",
"@. c #8C6846",
"#. c #8B6B49",
"$. c #926F4B",
"%. c #96714B",
"&. c #856E5D",
"*. c #8B735E",
"=. c #80676D",
"-. c #8D786F",
";. c #917762",
":. c #947B68",
">. c #857177",
",. c #817B74",
"<. c #937A74",
"1. c #808269",
"2. c #88876C",
"3. c #848374",
"4. c #8B8F78",
"5. c #9E877B",
"6. c #909074",
"7. c #92927E",
"8. c #A4856C",
"9. c #A8896F",
"0. c #938A83",
"q. c #9A8D8A",
"w. c #939281",
"e. c #999B85",
"r. c #A98F84",
"t. c #A59993",
"y. c #9DA286",
"u. c #9BA289",
"i. c #A3A88E",
"p. c #A4A893",
"a. c #ADB696",
"s. c #ADB49A",
"d. c #B4BD9D",
"f. c #CFBBB9",
"g. c #B6C09E",
"h. c #BAC6A2",
"j. c #C1CCA7",
"k. c #C3CFA9",
"l. c #C6D2AC",
"z. c #CBD6AF",
"x. c #CCD8B2",
"c. c #D2DFB6",
"v. c #DAE7BD",
"b. c #DCEBBE",
"n. c #DFEDC0",
"m. c #E1EFC2",
"M. c #E3F1C4",
/* pixels */
"m.m.m.m.m.m.M.M.M.M.M.M.M.M.M.M.M.h.3.0.p.v.M.m.m.m.m.m.m.m.m.m.",
"m.m.m.m.m.b.k.y. .e.j.j.j.j.j.j.g.E o.] } u.c.M.m.m.m.m.m.m.m.m.",
"m.m.m.M.b.4.@ * > * d J J g 8 r w = = O v v 1.z.m.m.m.m.m.m.m.m.",
"m.m.m.M.d.0 o $ ; = b %.K = ; 7 7 7 5 < @.$.+.6.M.m.m.m.m.m.m.m.",
"m.m.M.M.a.w = % 7 = n O.1 > a a 7 7 7 > k #.#.2.m.m.m.m.m.m.m.m.",
"m.m.m.b.| e y % > * v r 5 a 7 7 7 7 7 a - x c 1.m.m.m.m.m.m.m.m.",
"m.m.m.b.W 2 1 , g , * > 7 7 = 8 6 7 7 7 ; 7 8 X.M.m.m.m.m.m.m.m.",
"m.m.m.b./ n g + t + & 7 = 4 l c j = 5 7 a R U a.M.m.m.m.m.m.m.m.",
"m.m.m.b.W e = $ > $ = ; , l G D G N : 7 u ' >.i.m.m.m.m.m.m.m.m.",
"m.m.m.b.Q = e % ; & - ; w G G D G A = 7 7 Z ` 3.M.m.m.m.m.m.m.m.",
"m.m.m.b.Q . w & a % - > r H L &.^ F & 5 7 7 7 ..n.m.m.m.m.m.m.m.",
"m.m.m.b.Q s y & a $ - ; r :.~ ~ &.^ O * 5 7 - ..M.m.m.m.m.m.m.m.",
"m.m.m.b.) e = & a % & ; r 8.&., q ~ N k > 7 > ..M.M.n.M.m.m.m.m.",
"m.m.M.b.~ s u & a & - ; r 9.:.~ f &.:.0 > 7 - ..m.n.M.m.m.m.m.m.",
"m.m.m.b.( s e . - . - ; $ &.;.D _ 9._ % 5 7 > ..M.b.m.m.m.m.m.m.",
"m.m.m.b.Q = t 9 c 9 & ; - d *.*.:.D O > s P & ..M.M.m.m.m.m.m.m.",
"m.m.m.b.) z z . = o 1 6 7 = = = = % 5 s T I g ,.m.m.m.m.m.m.m.m.",
"m.m.m.b.) 1 4 . # * K h - 7 7 7 7 7 s T I J +.2.m.m.m.m.m.m.m.m.",
"m.m.m.b.W 5 4 o $ * K K 1 > 7 7 7 7 Z =.F +.+.! x.m.M.m.m.m.m.m.",
"m.m.m.b.) = o . $   h v t $ & & & % M B d v h V w.s.n.m.m.m.m.m.",
"m.m.m.n.Q 6 3 % 3 = p * . . .   8 C C C s X 8 [ f.,.k.M.m.m.m.m.",
"m.m.m.m.e.0 u . i _ r.{ q q.} @ -.5.( ( <.-.F V t.e.c.M.m.m.m.m.",
"m.m.m.M.h.m 8 X % p Y Y i q.} 0 Y I S S Y Y A E d.v.m.m.m.m.m.m.",
"m.m.m.m.n.l.e.w.w.w.w.w.0.3.e.w.w.w.0.7.w.7.7.d.M.m.m.m.m.m.m.m.",
"m.m.m.m.m.M.M.M.M.M.M.M.M.m.m.M.M.M.M.M.M.M.M.M.m.m.m.m.m.M.m.m.",
"m.m.m.m.m.m.m.m.m.m.M.M.m.m.m.m.M.m.M.m.M.m.m.m.m.m.m.m.m.m.m.m.",
"m.m.m.m.m.m.m.m.m.m.m.m.m.m.m.m.M.m.m.m.m.m.m.m.m.m.m.m.m.m.m.m.",
"m.m.m.m.m.m.m.m.m.m.m.m.m.m.m.m.m.m.m.m.m.m.m.m.m.m.m.m.m.m.m.m.",
"m.m.m.m.m.m.m.m.m.m.m.m.m.m.m.m.m.m.m.m.m.m.m.m.m.m.m.m.m.m.m.m.",
"m.m.m.m.m.m.m.m.m.m.m.m.m.m.m.m.m.m.m.m.m.m.m.m.m.m.m.m.m.m.m.m.",
"m.m.m.m.m.m.m.m.m.m.m.m.m.m.m.m.m.m.m.m.m.m.m.m.m.m.m.m.m.m.m.m.",
"m.m.m.m.m.m.m.m.m.m.m.m.m.m.m.m.m.m.m.m.m.m.m.m.m.m.m.m.m.m.m.m."
};
