/* XPM */
static char *C_3[] = {
/* columns rows colors chars-per-pixel */
"32 32 138 2 ",
"   c #3A2224",
".  c #3D272A",
"X  c #372B2B",
"o  c #3E2F2E",
"O  c #37302D",
"+  c #3F332A",
"@  c #461E26",
"#  c #422326",
"$  c #452529",
"%  c #4C2529",
"&  c #452B2A",
"*  c #4B2A2C",
"=  c #54272D",
"-  c #5B272F",
";  c #56292E",
":  c #5D282F",
">  c #42332D",
",  c #4B312E",
"<  c #52342F",
"1  c #5B352F",
"2  c #4D2D32",
"3  c #5B2731",
"4  c #522C31",
"5  c #5E2932",
"6  c #433634",
"7  c #4C3333",
"8  c #473E35",
"9  c #453A38",
"0  c #4D3A3C",
"q  c #533234",
"w  c #5B3235",
"e  c #543B33",
"r  c #5A3C30",
"t  c #563338",
"y  c #5D3139",
"u  c #523D3E",
"i  c #602933",
"p  c #65353C",
"a  c #484032",
"s  c #47413D",
"d  c #4D423A",
"f  c #5D4131",
"g  c #54433C",
"h  c #5A453A",
"j  c #624635",
"k  c #604A39",
"l  c #694A3A",
"z  c #6C533C",
"x  c #785D3F",
"c  c #663C44",
"v  c #524642",
"b  c #5D4543",
"n  c #564A44",
"m  c #5D4944",
"M  c #54504A",
"N  c #5F5754",
"B  c #604E44",
"V  c #6A424B",
"C  c #614F4B",
"Z  c #71494E",
"A  c #625245",
"S  c #64554B",
"D  c #69554C",
"F  c #645A4A",
"G  c #6A594A",
"H  c #745C43",
"J  c #7B5D41",
"K  c #755F4E",
"L  c #655553",
"P  c #6A5658",
"I  c #71525A",
"U  c #745B5A",
"Y  c #795E5A",
"T  c #6B604C",
"R  c #74654E",
"E  c #7B694F",
"W  c #666A5A",
"Q  c #6B6959",
"!  c #7A6554",
"~  c #7D6A55",
"^  c #7A655A",
"/  c #725760",
"(  c #7B5D66",
")  c #6D6361",
"_  c #726465",
"`  c #757563",
"'  c #7B706E",
"]  c #7E7F6C",
"[  c #826445",
"{  c #866648",
"}  c #8E6B49",
"|  c #906E4B",
" . c #95714B",
".. c #826D5B",
"X. c #88705C",
"o. c #846763",
"O. c #856A66",
"+. c #8D7563",
"@. c #8D736C",
"#. c #977C65",
"$. c #90726B",
"%. c #967C68",
"&. c #8A727B",
"*. c #957770",
"=. c #937870",
"-. c #997C74",
";. c #9D816A",
":. c #858675",
">. c #88827A",
",. c #8B8B7D",
"<. c #9D8571",
"1. c #93937D",
"2. c #A4866D",
"3. c #958B87",
"4. c #978A89",
"5. c #9A8D89",
"6. c #A0A78A",
"7. c #A0A290",
"8. c #A6AD92",
"9. c #B0A19D",
"0. c #A9B293",
"q. c #B3B996",
"w. c #B3BB9D",
"e. c #B7A8A5",
"r. c #B9C49F",
"t. c #B9C4A1",
"y. c #C0CCA7",
"u. c #C3CEAB",
"i. c #C4D1AC",
"p. c #CCD7B2",
"a. c #CCD9B2",
"s. c #D1DEB5",
"d. c #D6E4BA",
"f. c #D9E6BC",
"g. c #DBE9BD",
"h. c #DEECC1",
"j. c #E1EFC2",
"k. c #E2F1C3",
/* pixels */
"j.j.j.j.j.j.j.j.j.j.j.j.j.j.j.j.j.j.j.j.j.j.j.j.j.j.j.j.j.j.j.j.",
"j.j.j.j.j.j.j.j.j.j.j.j.j.j.j.j.j.j.j.j.j.j.j.j.j.j.j.j.j.j.j.j.",
"j.j.j.j.j.j.j.j.j.j.j.j.j.j.j.j.j.j.j.j.j.j.j.j.j.j.j.j.j.j.j.j.",
"j.j.j.j.j.j.j.j.j.j.j.j.j.j.j.j.j.j.j.j.j.j.j.j.j.j.j.j.j.j.j.j.",
"j.j.j.j.j.j.j.j.j.j.j.j.j.j.j.j.j.j.j.j.j.j.j.j.j.j.j.j.j.j.j.j.",
"j.j.j.j.j.j.j.j.j.j.j.j.j.j.j.j.j.j.k.h.j.j.j.j.j.j.j.j.j.j.j.j.",
"j.j.j.j.j.j.j.j.j.j.j.j.j.j.j.j.j.k.j.k.k.h.k.j.j.j.j.j.j.j.j.j.",
"j.j.j.j.j.j.j.j.j.j.j.j.j.j.k.k.j.k.h.i.d.h.j.j.j.j.j.j.j.j.j.j.",
"j.j.j.j.j.k.k.k.h.j.k.k.k.k.k.k.k.u.,.>.7.p.j.j.j.j.j.j.j.j.j.j.",
"j.j.j.j.k.d.t.1.Q 1.t.t.r.r.t.t.r.W _ _ ) :.y.j.j.j.j.j.j.j.j.j.",
"j.j.j.k.d.] O $ 3 & a H H e * q q * * . k z E q.h.h.k.j.j.j.j.j.",
"j.j.k.k.0.7 . # 5 $ H  .[ * 5 5 5 i 5 * J  .| ~ d.j.j.j.j.j.j.j.",
"j.j.j.k.6.q * $ i % x { r ; 5 5 5 5 5 ; e [ | R a.k.j.j.j.j.j.j.",
"j.j.k.f.Q w t . 3 $ z e ; 5 i i i 5 i i ; 1 z F d.k.j.j.j.j.j.j.",
"j.j.k.d.A r ; + e + & ; 5 5 * , * 5 i 5 i 3 7 M s.j.j.j.j.j.j.j.",
"j.j.k.d.T J f + h > % 5 ; * g A g * 3 i 5 Z / :.g.j.j.j.j.j.j.j.",
"k.k.j.d.F w $ # ; # % : & g G A G A * i 5 I &.,.f.k.j.j.j.j.j.j.",
"k.g.k.f.A 2 w % : % = : e G A A F S 2 i 5 c ( ) s.k.j.j.k.j.j.j.",
"k.j.k.d.S   t $ i % % : , G G ! ! F * 3 5 5 i m s.k.k.j.j.j.j.j.",
"j.j.k.f.L y y @ i $ * : q +.! ..X.O.& & ; 5 5 b d.g.j.j.j.j.j.j.",
"j.j.k.d.P p * $ i $ % : q ;.~ 8 6 ..8 B = 5 5 b s.k.j.j.j.j.j.j.",
"j.j.j.d.G p r $ i % % : 7 2.;.K d T #.S % 5 - m s.k.j.j.j.j.j.j.",
"k.k.k.d.L p w # - # % : & X.;.A A %.;.> - 5 3 m s.k.j.j.j.j.j.j.",
"k.g.k.d.F ; < > h , % i % g %.+.<.+.d $ 5 V y m s.k.j.j.j.j.j.j.",
"j.j.k.d.F f l + e o & ; 5 $ 7 e e & % i V I g n s.k.j.j.j.j.j.j.",
"j.j.j.d.T r ,   @ & z r = 5 3 3 3 5 i V / D { R a.k.j.j.j.j.j.j.",
"j.j.k.d.A 4 q @ # % J J * 5 5 5 5 5 w ( P J } T i.k.k.j.j.j.j.j.",
"j.j.k.d.D * .       z { j % = = = = V _ h E J d ,.w.h.j.j.j.j.j.",
"j.j.k.f.L 4 . $ % $ & & $         & 7 0 > & * n e.3.0.k.j.j.j.j.",
"j.j.j.g.` t 4 . 7 C =.D X L L X C -.^ U O.U v s e.5.8.k.j.j.j.j.",
"j.j.j.k.8.o t # 4 U -.$.n 9.4.0 @.*.Y U o.-.@.n :.w.f.k.j.j.j.j.",
"j.j.j.j.a.:.v 9 6 0 u 0 0 N ' 6 0 0 u u u g 0 L a.k.k.j.j.j.j.j."
};
