/* XPM */
static char *E[] = {
/* columns rows colors chars-per-pixel */
"36 32 70 1 ",
"  c #6E6D1E",
". c #6F701C",
"X c #72751B",
"o c #675D22",
"O c #63503F",
"+ c #6B6625",
"@ c #6D6C23",
"# c #69622B",
"$ c #726E2E",
"% c #737423",
"& c #73712C",
"* c #6E6A32",
"= c #6C643D",
"- c #6C693C",
"; c #726E34",
": c #726C3C",
"> c #757234",
", c #757038",
"< c #78753B",
"1 c #645444",
"2 c #6B5E44",
"3 c #655748",
"4 c #685748",
"5 c #65584B",
"6 c #6B5C4C",
"7 c #6C5F51",
"8 c #6D6644",
"9 c #6D6841",
"0 c #6E634B",
"q c #6F684D",
"w c #736D43",
"e c #746F4B",
"r c #786F4F",
"t c #797345",
"y c #77734B",
"u c #79744C",
"i c #7D7B49",
"p c #6E6355",
"a c #6E6658",
"s c #6F685A",
"d c #716455",
"f c #766C54",
"g c #786D54",
"h c #716759",
"j c #746B5D",
"k c #786D5C",
"l c #7A7454",
"z c #77715B",
"x c #7A735C",
"c c #7E7A5C",
"v c #756E61",
"b c #786F61",
"n c #767164",
"m c #7B7365",
"M c #7E7964",
"N c #7C7669",
"B c #7E796C",
"V c #7F7C71",
"C c #807667",
"Z c #807A64",
"A c #807769",
"S c #827B6D",
"D c #837E72",
"F c #828257",
"G c #848359",
"H c #858175",
"J c #888376",
"K c #878479",
"L c #898679",
"P c #8B897B",
/* pixels */
"XXXXXXXXXXXXXXXXXXXXXXXXXXXXXXXXXXXX",
"XXXXXXXXXXXXXXXXXXXXXXXXXXXXXXXXXXXX",
"XXXXXXXXXXXXXXXXXXXXXXXXXXXXXXXXXXXX",
"XXXXXXXXXXXXXXXXXXXXXXXXXXXXXXXXXXXX",
"XXXXXXXXXXXXXXX&&>>&&%XXXXXXXXXXXXXX",
"XXXXXXXXXXXXXX&lZZxZc;.XXXXXXXXXXXXX",
"XXXXXXXXXXX%$;wSJDAHJl#$%XXXXXXXXXXX",
"XXXXXXXXX%;egggHJJHJJkfgr;XXXXXXXXXX",
"XXXXXXX%<llkNBMSLLLPJABVCr::%.XXXXXX",
"XXXXXX%tMMMSHHjkNmmSSNDKHAxgy>XXXXXX",
"XXXXX&uxmSHHNs1144467hNVDDVnku>%XXXX",
"XXXX%uMNSKHv51156dah77ajmVHVmmc&XXXX",
"XX%&,rhmHHvO17psjvnvvvjvavBBmkgw&%XX",
"XX>cMNmNBb13aapppahpsssvvdbSBBAZZi%X",
"XX<DDSVVVj1asapsssnjvvavvvhDHHDSJF%X",
"XXtDBNDHHd6vvapvnnNNnvavvvhDHJACJG%X",
"X%tHDDHLHp7nnvsnBnnBNnsnnvhDJJDDLG%X",
"XXtJPLKDB7pNNnvNBBBBNNnnnj7NDDJLKF%X",
"X.:mNmkNBbsNBnvNBNBBBmvNnajNNhbbmy%X",
"XX#8hjpbHHVNNNvmnnnnnnvnvvBVbdjb0*XX",
"XX +rBmdNKKDNmkmnBmnnnbbbDKBdhDM;.XX",
"XXX.*mNpanKKHCkvxmmmjbADKKDp4jNw%XXX",
"XXXX%:mBkhmDJHACVHBZNNHLDN77jk9@XXXX",
"XXXXX@wBDAbhmCCDLJHHDCCba7hmm8+XXXXX",
"XXXXXX@wxDSvd6dHPJDJJk47vbmz=+.XXXXX",
"XXXXXXXX*wzBBkkDPJDLJjdmAk8# XXXXXXX",
"XXXXXXXXX ;8qq0vNNnnm028=#+.XXXXXXXX",
"XXXXXXXXXXXX++#-w----oo   XXXXXXXXXX",
"XXXXXXXXXXXXXXX%XX%.X..XXXXXXXXXXXXX",
"XXXXXXXXXXXXXXXXXXXXXXXXXXXXXXXXXXXX",
"XXXXXXXXXXXXXXXXXXXXXXXXXXXXXXXXXXXX",
"XXXXXXXXXXXXXXXXXXXXXXXXXXXXXXXXXXXX"
};
