/* XPM */
static char *E[] = {
/* columns rows colors chars-per-pixel */
"32 32 202 2 ",
"   c #1E1E1C",
".  c #21211F",
"X  c #2A341C",
"o  c #313B17",
"O  c #1E1E20",
"+  c #211F20",
"@  c #252425",
"#  c #282627",
"$  c #272A29",
"%  c #2B2C2C",
"&  c #292828",
"*  c #302F2B",
"=  c #2C302F",
"-  c #2D3526",
";  c #32312D",
":  c #333929",
">  c #313922",
",  c #2E2E31",
"<  c #272A36",
"1  c #332E37",
"2  c #2E3132",
"3  c #333334",
"4  c #383733",
"5  c #353837",
"6  c #393A34",
"7  c #35363A",
"8  c #363A38",
"9  c #3B3B3C",
"0  c #393738",
"q  c #403C3D",
"w  c #364210",
"e  c #3A4525",
"r  c #3F4337",
"t  c #5B7214",
"y  c #617D0C",
"u  c #637D14",
"i  c #637B19",
"p  c #4F5D28",
"a  c #515E28",
"s  c #42423E",
"d  c #424C34",
"f  c #4C5436",
"g  c #566628",
"h  c #5C6A39",
"j  c #697E31",
"k  c #3B3444",
"l  c #373945",
"z  c #3E3E41",
"x  c #373845",
"c  c #36324C",
"v  c #403F46",
"b  c #403B51",
"n  c #3F4140",
"m  c #434343",
"M  c #484643",
"N  c #494946",
"B  c #45454B",
"V  c #464A4C",
"C  c #4B4B4C",
"Z  c #514E4D",
"A  c #4C5249",
"S  c #55554C",
"D  c #4C4555",
"F  c #464953",
"G  c #4D4D53",
"H  c #49475A",
"J  c #4B4E59",
"K  c #454753",
"L  c #514F53",
"P  c #544D5D",
"I  c #4E5153",
"U  c #4E505C",
"Y  c #525255",
"T  c #54545A",
"R  c #585859",
"E  c #62615D",
"W  c #696D57",
"Q  c #4E4B69",
"!  c #5F5E62",
"~  c #5A5664",
"^  c #635F6A",
"/  c #656464",
"(  c #696964",
")  c #66656B",
"_  c #68676D",
"`  c #67686D",
"'  c #6B6A6B",
"]  c #706F6B",
"[  c #6E7063",
"{  c #696372",
"}  c #6C6B72",
"|  c #6C697A",
" . c #69667B",
".. c #716D77",
"X. c #727278",
"o. c #66830C",
"O. c #6A890C",
"+. c #678214",
"@. c #6A8416",
"#. c #6A8618",
"$. c #6E891C",
"%. c #6C8912",
"&. c #718A1C",
"*. c #759212",
"=. c #799616",
"-. c #7D9A1A",
";. c #7D951B",
":. c #7FA303",
">. c #6C8422",
",. c #6E8923",
"<. c #7E9924",
"1. c #809D1D",
"2. c #8BAE0C",
"3. c #84A80B",
"4. c #8CB40C",
"5. c #8CB80D",
"6. c #93BD0C",
"7. c #95BA08",
"8. c #87AE14",
"9. c #8AAE12",
"0. c #89A817",
"q. c #8CB214",
"w. c #8DB31A",
"e. c #8EBB17",
"r. c #90B316",
"t. c #93BC14",
"y. c #92B61C",
"u. c #94BA1C",
"i. c #99BB1E",
"p. c #839F25",
"a. c #81972B",
"s. c #849934",
"d. c #84A121",
"f. c #88A624",
"g. c #88A428",
"h. c #8CB624",
"j. c #91B624",
"k. c #95BA22",
"l. c #9ABD23",
"z. c #92B32D",
"x. c #97BC2B",
"c. c #98BD29",
"v. c #91AA32",
"b. c #94B533",
"n. c #99B231",
"m. c #9EBD31",
"M. c #94B936",
"N. c #9AC317",
"B. c #98C10B",
"V. c #A1CB1B",
"C. c #A4C51C",
"Z. c #9DC223",
"A. c #9EC42A",
"S. c #9EC927",
"D. c #9FC534",
"F. c #A4CB2E",
"G. c #A4C62A",
"H. c #A0C332",
"J. c #A7CC34",
"K. c #A8D137",
"L. c #95AB58",
"P. c #A3BB51",
"I. c #A2C140",
"U. c #B0C84E",
"Y. c #6E6B80",
"T. c #7E7E83",
"R. c #7E7F8A",
"E. c #7F7C91",
"W. c #817E86",
"Q. c #817E93",
"!. c #7F8287",
"~. c #838484",
"^. c #878986",
"/. c #86858B",
"(. c #89878B",
"). c #8A8A8D",
"_. c #848295",
"`. c #8C8C92",
"'. c #878399",
"]. c #89869B",
"[. c #8C8898",
"{. c #918D99",
"}. c #949493",
"|. c #95959B",
" X c #98979C",
".X c #9B999D",
"XX c #97989D",
"oX c #A09E9F",
"OX c #9FA196",
"+X c #9D9BA3",
"@X c #9D9CAB",
"#X c #9E99B3",
"$X c #8480A5",
"%X c #A09FA5",
"&X c #A29DAA",
"*X c #A29FBA",
"=X c #A29FB2",
"-X c #9FA0A4",
";X c #A2A1A6",
":X c #A3A2AA",
">X c #A8A8AC",
",X c #A6A2B2",
/* pixels */
"t.t.M.x.0.C.n.U.y.u.i.2.l.i.r.u.u.3.i.r.l.y.i.u.P.n.7.N.u.z.S.8.",
"h.e.8.B.j.p.g f Y L N 3 Y C V I Y 3 Y m Z L C 5 f a v.m.C.9.5.e.",
"M.q.5.4.P.p @XQ.Q.'.Q.| #X{.]._.R.| @X].Q.'.Q. .W.~.h L.9.N.5.w.",
"8.B.e.D.A @X*X*XoXoX(./ ;X}.;X%X(.' ;X.XoX%X(.' >X~.~.d b.h.A.D.",
"N.Z.J.b.F ,X-XOX&X&X[.{ ,X&X,X%X/.{ &X:X&X&XW.| }.>X!.Y z.w.J.D.",
"j.J.r.m.A ` ( [ 3 3 q 3 ' ' / Y Z 0 _ ' / T M C *X,X_.A 3.t.w.A.",
"u.j.l.y.A -X~./.J 3 z 3 Z P Y J L 0 G L R D v Y #X-X_.A 3.3.c.u.",
"B.8.y.c.V :XXX'.P $ 7 , 0 0 , 3 1 < 0 , 0 , , T ' ( ..< o.O.b.4.",
"u.y.l.u.J -X:X~.Y # 3 0 9 m 3 / / Y C Y 3 ) m Y ;X-X^.U $.#.k.w.",
"k.q.w.r.U :X-X!.Z # * 3 9 9 % N T C Y T 3 R 9 Y +X@X~.F +.o.k.u.",
"w.9.y.l.T +X+X`.Z # # # & 3 % 3 0 & 9 9 @ 3 % Y +X&X).U #.u y.k.",
"j.9.y.i.B X.} _ q + # , , 8 9 m 9 9 ! ' R Y v T ;X@X^.F y y w.u.",
"w.9.q.l.~ |.`./.M + * 0 * 1 5 r z 7 V Y C B 9 Y -X@X~.J #.+.k.k.",
"k.y.l.y.U ;X+X!.R # + % + + $ 3 0 % , 3 2 0 0 C ) } / l +.#.k.w.",
"k.k.G.i.I -X-X/.L + # * 1 4 % 3 m m z v , 9 m Y ;X@X^.U &.$.l.w.",
"y.q.c.G.T +X+X/.Y # # # * 0 % 0 3 m z N 3 m 9 Y +X@X^.J $.@.k.y.",
"u.r.l.q.T -X@X/.C - # & . # & @ , 2 3 1 , 3 1 Y %X+X/.I i o.w.e.",
"y.9.y.l.F } | { 4   . % ; 3 3 ; 0 0 3 3 , 0 3 Y +X+X`.Y i o.w.k.",
"u.Z.c.Z.T -X+X).C 3 % & @ # @ = @ @ % % O , % C :XXX/.V >.+.j.8.",
"c.Z.u.k.U -X@X+X0 C N I Y C 0 C L L T J 0 L C J } _ _ 7 >.%.H.e.",
"F.Z.k.i.F :X-X:X..|.).~.).W._ %X(././.T.}  X}./.T.).`.V >.y H.N.",
"A.i.k.9.l XX:X@X' :X;X+X+X/._ +X+X&X+X(.} %X;X.X:X+XT.9 i o.D.k.",
"u.q.y.y.l ` |.&X) +X;X+X+X/.} +X+X;X.X(._ .X+X%X+XR.I , t %.c.q.",
"q.l.l.y.7 ) {.{ B } } ) T J n | } ) Y J z X.} } Y F 7 5 i o.j.u.",
"t.f.x.g.1 m W S , T G R G J 3 Y T Y Y G 8 Y G J S c 6 < $.u q.x.",
"u.y.2.y.- ..s b N 9 q s s N q q s 3 m N 3 m m s q c r 3 $.u 4.y.",
"Z.q.6.u.- ) `.Y.E R Z ; / ( E ] Z 4 E ] ( ( Z * ( H s - u @.q.h.",
"h.u.J.f.8 J / N ~ D L k { ..~ D P k { { P P D 1 A 0 o - i >.x.M.",
"k.F.8.I.X F n F 6 N M 3 s s 4 m s & Z s 6 m M ; H c : w ,.<.A.h.",
"K.N.q.i.j o  .Q 0 ` / Y Y Y 9 ` ' G Y m V ! ) Y Q l e g g.h.N.6.",
"S.N.y.t.z.&.w : 3 2 = 5 $ 2 2 2 2 2 3 5 $ 2 2 , X w g <.h.N.V.N.",
"h.w.b.q.i.4.s.s.*.-.d.f.d.=.-.=.=.;.*.0.-.-.-.=.<.-.0.Z.y.8.h.h."
};
