/* XPM */
static char *E_A[] = {
/* columns rows colors chars-per-pixel */
"32 32 255 2 ",
"   c #E1EFC2",
".  c #E2EFC2",
"X  c #DAE9BF",
"o  c #6D7A6D",
"O  c #5B665E",
"+  c #D0DFB8",
"@  c #E2F0C3",
"#  c #E2F0C2",
"$  c #D1E0B9",
"%  c #3C433C",
"&  c #272D2C",
"*  c #C8D7B2",
"=  c #E3F0C3",
"-  c #DDECC0",
";  c #758171",
":  c #101212",
">  c #292E2C",
",  c #4B534B",
"<  c black",
"1  c #292F2C",
"2  c #DBE9BF",
"3  c #4B544B",
"4  c #C8D8B3",
"5  c #2A2F2C",
"6  c #DCEBC0",
"7  c #4E554C",
"8  c #2A2F2E",
"9  c #CAD9B4",
"0  c #E4F2C4",
"q  c #C2D1AE",
"w  c #3F4440",
"e  c #232726",
"r  c #A3B197",
"t  c #C6D4B0",
"y  c #DFEDC1",
"u  c #DFEEC2",
"i  c #8D9D88",
"p  c #222624",
"a  c #2C2614",
"s  c #1E1F1C",
"d  c #525F59",
"f  c #869684",
"g  c #D4E5BD",
"h  c #575E4C",
"j  c #A9912A",
"k  c #7B753D",
"l  c #A1B297",
"z  c #D8E8BF",
"x  c #E0EFC2",
"c  c #B3C4A6",
"v  c #797645",
"b  c #D8BC14",
"n  c #D8BE21",
"m  c #6D6F54",
"M  c #CFDFB9",
"N  c #DCECC1",
"B  c #656E5F",
"V  c #AB962D",
"C  c #BFA31F",
"Z  c #C9AD21",
"A  c #676949",
"S  c #CEDDB7",
"D  c #DBEBC1",
"F  c #586258",
"G  c #43381A",
"H  c #362D14",
"J  c #AC962A",
"K  c #6B6B4A",
"L  c #CDDDB8",
"P  c #D5E8C1",
"I  c #55625C",
"U  c #636465",
"Y  c #403B33",
"T  c #BDA52A",
"R  c #ABA040",
"E  c #99A589",
"W  c #DBEABF",
"Q  c #DBEDC4",
"!  c #899D8D",
"~  c #87908F",
"^  c #767676",
"/  c #8D8C8B",
"(  c #7D6E38",
")  c #BFA42E",
"_  c #707459",
"`  c #D1E2BA",
"'  c #D3EAC5",
"]  c #5B6B65",
"[  c gray64",
"{  c #5B5A5B",
"}  c #AAAAAB",
"|  c #514C37",
" . c #C8AF1F",
".. c #AEA139",
"X. c #909A7F",
"o. c #DBEAC0",
"O. c #D0E9C6",
"+. c #586B66",
"@. c #989898",
"#. c #606060",
"$. c #A4A4A4",
"%. c #5A5238",
"&. c #DABB11",
"*. c #CBB118",
"=. c #686C55",
"-. c #D8E7BE",
";. c #CFE9C7",
":. c #516461",
">. c #373432",
",. c #8D8D8B",
"<. c #605D57",
"1. c #B19827",
"2. c #F7D509",
"3. c #CDB219",
"4. c #6D7155",
"5. c #C4DFC1",
"6. c #5B6A5A",
"7. c #8E7A23",
"8. c #6B6137",
"9. c #282116",
"0. c #CDB117",
"q. c #FEDB02",
"w. c #F4D20D",
"e. c #AD9D3A",
"r. c #828E79",
"t. c #DDECC1",
"y. c #84917F",
"u. c #7A6F38",
"i. c #CEB224",
"p. c #B09A2B",
"a. c #5A4B22",
"s. c #D4B617",
"d. c #FFDB04",
"f. c #FFDC04",
"g. c #BEA61C",
"h. c #656D5B",
"j. c #DBEBC0",
"k. c #E4F2C5",
"l. c #727A67",
"z. c #2B2312",
"x. c #2D2512",
"c. c #93802D",
"v. c #CBB01C",
"b. c #D1B317",
"n. c #D3B718",
"m. c #9B8724",
"M. c #636A5C",
"N. c #757B6A",
"B. c #877526",
"V. c #6B5E1E",
"C. c #110E0A",
"Z. c #3D3316",
"A. c #4F4318",
"S. c #453919",
"D. c #2D240F",
"F. c #362D18",
"G. c #5B6358",
"H. c #DCEBC1",
"J. c #747B69",
"K. c #746520",
"L. c #AC952B",
"P. c #3A311A",
"I. c #837129",
"U. c #AE9626",
"Y. c #89782A",
"T. c #362E18",
"R. c #6E602E",
"E. c #5E6658",
"W. c #727A69",
"Q. c #332B17",
"!. c #584A1B",
"~. c #483D19",
"^. c #241E0F",
"/. c #4A3D1B",
"(. c #54471B",
"). c #4F4119",
"_. c #3E3419",
"`. c #596257",
"'. c #DDEDC2",
"]. c #E3F1C4",
"[. c #99A690",
"{. c #7E7A45",
"}. c #A59026",
"|. c #968429",
" X c #362D17",
".X c #847129",
"XX c #A38D24",
"oX c #A48F26",
"OX c #766627",
"+X c #414943",
"@X c #BACBAA",
"#X c #909F88",
"$X c #262925",
"%X c #070504",
"&X c #030102",
"*X c #140F0A",
"=X c #443B1F",
"-X c #261F10",
";X c #5B4D20",
":X c #453C1F",
">X c #677364",
",X c #DEEDC2",
"<X c #8E9D86",
"1X c #252C2D",
"2X c #1A3343",
"3X c #212420",
"4X c #66592B",
"5X c #342C19",
"6X c #8C7C29",
"7X c #878245",
"8X c #94A58E",
"9X c #DDEDC3",
"0X c #556564",
"qX c #3880A4",
"wX c #2A414D",
"eX c #5F6B60",
"rX c #707C6E",
"tX c #596258",
"yX c #5B6A61",
"uX c #CEE8C5",
"iX c #DBEEC4",
"pX c #DAE8BE",
"aX c #586A64",
"sX c #3B85A7",
"dX c #304752",
"fX c #859585",
"gX c #D8EDC5",
"hX c #B1C2A6",
"jX c #4A5652",
"kX c #9EB49D",
"lX c #5B675E",
"zX c #3A5B6B",
"xX c #506F78",
"cX c #343E3F",
"vX c #CADAB6",
"bX c #748070",
"nX c #4A544F",
"mX c #B6C6A8",
"MX c #E3F1C3",
"NX c #A1B198",
"BX c #435251",
"VX c #86B4B3",
"CX c #688989",
"ZX c #55605A",
"AX c #D4E4BB",
"SX c #D0E0B9",
"DX c #9EAA92",
"FX c #C2D0AD",
"GX c #D8EAC2",
"HX c #99B5A6",
"JX c #A2D4C9",
"KX c #95C4BC",
"LX c #647369",
"PX c #D3E2B9",
"IX c white",
/* pixels */
"                        . X o O + @                             ",
"                        # $ % & * =                             ",
"                        - ; : > * =                             ",
"                        X , < 1 * @                             ",
"                        2 3 < 1 4 @                             ",
"                        2 3 < 5 4 @                             ",
"                      . 6 7 < 8 9 0                             ",
"                        q w < e r t y                           ",
"                      u i p a s d f X                           ",
"                      # g h j k l z                             ",
"                      x c v b n m M @                           ",
"                      N B V C Z A S @                           ",
"                      D F G H J K L @                           ",
"                    x P I U Y T R E W                           ",
"                    Q ! ~ ^ / ( ) _ ` #                         ",
"                    ' ] [ { } |  ...X.o.                        ",
"                  . O.+.@.#.$.%.&.*.=.-.#                       ",
"                  . ;.:.>.,.<.1.2.3.4.M                         ",
"                  # 5.6.7.8.9.0.q.w.e.r.t.                      ",
"                  0 y.u.i.p.a.s.d.f.g.h.j.                      ",
"                  k.l.z.x.z.c.v.b.n.m.M.6                       ",
"                  k.N.B.V.C.Z.A.S.D.F.G.H.                      ",
"                  k.J.K.L.P.I.U.Y.T.R.E.6                       ",
"                  k.W.Q.!.~.^./.(.)._.`.'.                      ",
"                  ].[.{.}.|. X.XXXoXOX+X@X                      ",
"                    '.#X$X%X&X*X=X-X;X:X>X,X                    ",
"                      '.<X1X2X3X4X5X6X7X8X9X                    ",
"                      # X 0XqXwXeXrXtXyXuXiX                    ",
"                        pXaXsXdXfXgXhXjXkXiX                    ",
"                        X lXzXxXcXi vXbXnXmXMX                  ",
"                        u NXBXVXCXZXAXSXDXFX@                   ",
"                          GXHXJXKXLXPXMXk.@                     "
};
