/* XPM */
static char *E_D[] = {
/* columns rows colors chars-per-pixel */
"32 32 255 2 ",
"   c #E1EFC2",
".  c #E2F0C2",
"X  c #D8E6BC",
"o  c #8B9984",
"O  c #96A48D",
"+  c #DDEBC0",
"@  c #E2F0C3",
"#  c #CCDBB4",
"$  c #2E342F",
"%  c #434A43",
"&  c #D8E7BD",
"*  c #CBDAB3",
"=  c #2C312C",
"-  c #1C1F1D",
";  c #919E87",
":  c #DFEDC1",
">  c #CBDAB4",
",  c #2D322D",
"<  c black",
"1  c #4F584E",
"2  c #DBEAC0",
"3  c #2C322D",
"4  c #E3F1C4",
"5  c #CDDBB4",
"6  c #2E322D",
"7  c #50594E",
"8  c #DCEBC0",
"9  c #E0EEC2",
"0  c #D2E0B8",
"q  c #B5C3A4",
"w  c #282D29",
"e  c #474E47",
"r  c #CDDCB6",
"t  c #8A9985",
"y  c #525D57",
"u  c #1C1C1A",
"i  c #1E190D",
"p  c #212523",
"a  c #8F9E89",
"s  c #E0EFC2",
"d  c #D4E4BC",
"f  c #A0B198",
"g  c #6E6939",
"h  c #9C872A",
"j  c #575D51",
"k  c #D1E2BB",
"l  c #D3E3BB",
"z  c #6E735B",
"x  c #D2B824",
"c  c #D4B719",
"v  c #74754C",
"b  c #BECEAC",
"n  c #D1E1B9",
"m  c #666A50",
"M  c #C9AF20",
"N  c #C9AC20",
"B  c #A8962B",
"V  c #6C7665",
"C  c #DEECC2",
"Z  c #D1E1BA",
"A  c #6A6C52",
"S  c #AC9427",
"D  c #3C3114",
"F  c #4A3F1D",
"G  c #5B6559",
"H  c #DDECC2",
"J  c #9BA98B",
"K  c #A3983E",
"L  c #BEA425",
"P  c #3E3A2C",
"I  c #5C5D60",
"U  c #57635B",
"Y  c #D9EAC2",
"T  c #D4E4BD",
"R  c #6F7257",
"E  c #BAA226",
"W  c #81713A",
"Q  c #8B8A86",
"!  c #787879",
"~  c #858C8B",
"^  c #96A994",
"/  c #DFEFC3",
"(  c #DEEDC1",
")  c #94A188",
"_  c #A99A3C",
"`  c #CAAF1D",
"'  c #534C3C",
"]  c #A7A8A8",
"[  c #5C5D5D",
"{  c #9D9E9D",
"}  c #69796D",
"|  c #DBEEC5",
" . c #DCECC1",
".. c #6A725F",
"X. c #C2A71B",
"o. c #DEBF12",
"O. c #5D543B",
"+. c gray63",
"@. c #626263",
"#. c #919292",
"$. c #65766E",
"%. c #D9EDC5",
"&. c #6F755C",
"*. c #C5AA1B",
"=. c #F8D609",
"-. c #B39A25",
";. c #5F5B52",
":. c #8C8C8A",
">. c #363330",
",. c #607269",
"<. c #D9EEC6",
"1. c #E0EEC3",
"2. c #87927D",
"3. c #A59532",
"4. c #F4D10D",
"5. c #FEDA05",
"6. c #CDB214",
"7. c #282313",
"8. c #706431",
"9. c #907D28",
"0. c #6A7865",
"q. c #D0E4BF",
"w. c #DFEEC2",
"e. c #6B7360",
"r. c #B19917",
"t. c #FFDE05",
"y. c #FFDC04",
"u. c #D8BA14",
"i. c #605323",
"p. c #B0972B",
"a. c #C6AA28",
"s. c #736A35",
"d. c #9DA98C",
"f. c #E4F2C5",
"g. c #687162",
"h. c #86751D",
"j. c #C7AB18",
"k. c #C2A816",
"l. c #BEA51C",
"z. c #8D792D",
"x. c #211C11",
"c. c #2B2213",
"v. c #302815",
"b. c #929B7E",
"n. c #E5F3C5",
"m. c #DFEEC3",
"M. c #636C61",
"N. c #372E18",
"B. c #2A2212",
"V. c #493D19",
"C. c #594A1B",
"Z. c #44381A",
"A. c #19130D",
"S. c #7E6F26",
"D. c #897726",
"F. c #949C80",
"G. c #E4F3C5",
"H. c #656E5E",
"J. c #605427",
"K. c #342D1A",
"L. c #7A6C23",
"P. c #A28B23",
"I. c #796927",
"U. c #372F18",
"Y. c #9C8825",
"T. c #65581B",
"R. c #939C80",
"E. c #E0EFC4",
"W. c #646D60",
"Q. c #463A1A",
"!. c #65551E",
"~. c #67561E",
"^. c #55471C",
"/. c #251F11",
"(. c #5C4F1F",
"). c #69581F",
"_. c #3E341A",
"`. c #929B80",
"'. c #E1F0C3",
"]. c #B7C7A7",
"[. c #3F463E",
"{. c #62521F",
"}. c #917C21",
"|. c #8E7B20",
" X c #736422",
".X c #302816",
"XX c #857324",
"oX c #927E22",
"OX c #7E804D",
"+X c #B6C4A2",
"@X c #E0F0C5",
"#X c #768275",
"$X c #524925",
"%X c #756525",
"&X c #2C2314",
"*X c #524724",
"=X c #15100C",
"-X c #020002",
";X c #030205",
":X c #353A37",
">X c #ABBA9D",
",X c #DDEFC4",
"<X c #ADC1A6",
"1X c #7D7D50",
"2X c #756726",
"3X c #302D1C",
"4X c #544B27",
"5X c #202828",
"6X c #224559",
"7X c #353E3D",
"8X c #AAB99D",
"9X c #E2F0C4",
"0X c #DBEEC4",
"qX c #D2EBC7",
"wX c #63726A",
"eX c #677469",
"rX c #91A18B",
"tX c #7B8979",
"yX c #2B4652",
"uX c #3581A4",
"iX c #5C6C66",
"pX c #D9ECC4",
"aX c #95AA97",
"sX c #47514C",
"dX c #ACBEA1",
"fX c #D6E9C3",
"gX c #768376",
"hX c #2E4652",
"jX c #3D80A0",
"kX c #5D6D66",
"lX c #DBEABF",
"zX c #E3F1C3",
"xX c #B2C1A4",
"cX c #4F5A55",
"vX c #899681",
"bX c #CFE0BA",
"nX c #7D8A79",
"mX c #354244",
"MX c #5B818A",
"NX c #334A56",
"BX c #667166",
"VX c #D1E0B8",
"CX c #BCCAA8",
"ZX c #D7E7BD",
"AX c #5B6961",
"SX c #719B9B",
"DX c #88BBBB",
"FX c #596A65",
"GX c #BCCBAA",
"HX c #D9E8BE",
"JX c #839381",
"KX c #9FC9BC",
"LX c #B2DFCD",
"PX c #BBD3B8",
"IX c white",
/* pixels */
"                            . X o O +                           ",
"                            @ # $ % & .                         ",
"                            @ * = - ; :                         ",
"                            @ > , < 1 2                         ",
"                            @ * 3 < 1 2                         ",
"                            @ * = < 1 2                         ",
"                            4 5 6 < 7 8                         ",
"                          9 0 q w < e r                         ",
"                          8 t y u i p a s                       ",
"                            d f g h j k                         ",
"                          . l z x c v b                         ",
"                          @ n m M N B V C                       ",
"                          @ Z A S D F G H                       ",
"                          8 J K L P I U Y                       ",
"                        . T R E W Q ! ~ ^ /                     ",
"                        ( ) _ ` ' ] [ { } |                     ",
"                         ...X.o.O.+.@.#.$.%.                    ",
"                        l &.*.=.-.;.:.>.,.<.                    ",
"                      1.2.3.4.5.6.7.8.9.0.q..                   ",
"                      w.e.r.t.y.u.i.p.a.s.d.f.                  ",
"                      w.g.h.j.k.l.z.x.c.v.b.n.                  ",
"                      m.M.N.B.V.C.Z.A.S.D.F.G.                  ",
"                      w.H.J.K.L.P.I.U.Y.T.R.n.                  ",
"                      E.W.Q.!.~.^./.(.)._.`.n.                  ",
"                    '.].[.{.}.|. X.XXXoXOX+X4                   ",
"                    @X#X$X%X&X*X=X-X;X:X>X'.                    ",
"                    ,X<X1X2X3X4X5X6X7X8X9X                      ",
"                    0XqXwXeXrXtXyXuXiX8                         ",
"                    pXaXsXdXfXgXhXjXkXlX                        ",
"                  zXxXcXvXbXnXmXMXNXBX8                         ",
"                  . VXCX& ZXAXSXDXFXGX                          ",
"                    @ 4 @ HXJXKXLXPXw.                          "
};
