/* XPM */
static char *E_S[] = {
/* columns rows colors chars-per-pixel */
"32 32 158 2 ",
"   c #010102",
".  c #0A0808",
"X  c #16181A",
"o  c #2C2412",
"O  c #332A15",
"+  c #332B19",
"@  c #3E3416",
"#  c #2A2E2C",
"$  c #3B3627",
"%  c #363B36",
"&  c #3B3A3B",
"*  c #453A11",
"=  c #443A1B",
"-  c #493D1A",
";  c #423F29",
":  c #3C423C",
">  c #4E4215",
",  c #4C411C",
"<  c #524516",
"1  c #5D4F17",
"2  c #52451A",
"3  c #52481C",
"4  c #5C4D1B",
"5  c #5F511A",
"6  c #645416",
"7  c #6E5E16",
"8  c #61521A",
"9  c #6E5F1D",
"0  c #716019",
"q  c #7B691C",
"w  c #4D4B32",
"e  c #454A3F",
"r  c #57553B",
"t  c #6B5C22",
"y  c #625B30",
"u  c #6C612D",
"i  c #776622",
"p  c #7A6920",
"a  c #75692A",
"s  c #7A6A29",
"d  c #6F6533",
"f  c #6A683D",
"g  c #7A6D36",
"h  c #7D7233",
"j  c #7D753D",
"k  c #444745",
"l  c #4D5247",
"z  c #4F574D",
"x  c #535A4C",
"c  c #535D52",
"v  c #595F53",
"b  c #5B5B5A",
"n  c #5D665A",
"m  c #5F685B",
"M  c #7E7A47",
"N  c #616A5C",
"B  c #78715A",
"V  c #657165",
"C  c #6C7766",
"Z  c #677468",
"A  c #737E6D",
"S  c #727F70",
"D  c #806D27",
"F  c #84732A",
"G  c #8C7A2B",
"H  c #927F25",
"J  c #907E29",
"K  c #837535",
"L  c #8B7D35",
"P  c #817538",
"I  c #81783F",
"U  c #827A40",
"Y  c #847D66",
"T  c #76846E",
"R  c #7E866F",
"E  c #7C8571",
"W  c #7D8974",
"Q  c #7E8B7A",
"!  c #9C8516",
"~  c #A48E1D",
"^  c #AB941D",
"/  c #B99F19",
"(  c #958026",
")  c #99862C",
"_  c #8E873D",
"`  c #A38C24",
"'  c #A18C2A",
"]  c #AB9323",
"[  c #A79128",
"{  c #AF9B28",
"}  c #B8A321",
"|  c #C8AD1E",
" . c #D8B813",
".. c #D3B51A",
"X. c #D7BB1B",
"o. c #DBBE1A",
"O. c #C4AC22",
"+. c #C6AF2D",
"@. c #CEB425",
"#. c #D9BF28",
"$. c #FDDA05",
"%. c #F2D10E",
"&. c #FAD709",
"*. c #FBD80A",
"=. c #E5C514",
"-. c #EBCB12",
";. c #E6C71C",
":. c #F3D111",
">. c #8C8545",
",. c #87834D",
"<. c #8D874D",
"1. c #938C44",
"2. c #908B4F",
"3. c #878F6F",
"4. c #979765",
"5. c #888676",
"6. c #879270",
"7. c #85937E",
"8. c #8E997A",
"9. c #949A75",
"0. c #949F7E",
"q. c #7A8E82",
"w. c #888683",
"e. c #8A9782",
"r. c #8D9B85",
"t. c #83978B",
"y. c #919E87",
"u. c #999793",
"i. c #9EAC91",
"p. c #9AAD98",
"a. c #9DB39C",
"s. c #A1AF94",
"d. c #A2B399",
"f. c #ABBA9E",
"g. c #B1BE9E",
"h. c #A1A0A3",
"j. c #ADBDA0",
"k. c #B3B2B4",
"l. c #AFC0A3",
"z. c #B4C2A1",
"x. c #B8C7A6",
"c. c #B7C8AA",
"v. c #BCCBA9",
"b. c #C3D1AD",
"n. c #C6D7B3",
"m. c #C9D7B1",
"M. c #CDDCB5",
"N. c #C9DBB8",
"B. c #D0DFB9",
"V. c #D4E4BB",
"C. c #D8E7BD",
"Z. c #D9E8BF",
"A. c #D8D8D7",
"S. c #DDECC2",
"D. c #E1EFC2",
"F. c #E3F1C3",
"G. c #EBECEC",
"H. c #F2F3F3",
/* pixels */
"D.D.D.D.D.D.D.D.D.D.D.D.D.S.c     n S.S.D.D.D.D.D.D.D.D.D.D.D.D.",
"D.D.D.D.D.D.D.D.D.D.D.D.S.S.z     n S.F.D.D.D.D.D.D.D.D.D.D.D.D.",
"D.D.D.D.D.D.D.D.D.D.D.D.D.S.c     n D.F.D.D.D.D.D.D.D.D.D.D.D.D.",
"D.D.D.D.D.D.D.D.D.D.D.D.D.S.c     m S.D.D.D.D.D.D.D.D.D.D.D.D.D.",
"D.D.D.D.D.D.D.D.D.D.D.D.S.S.c     n S.F.S.F.D.D.D.D.D.D.D.D.D.D.",
"D.D.D.D.D.D.D.D.D.D.D.D.F.S.n     N F.F.D.F.D.D.D.D.D.D.D.D.D.D.",
"D.D.D.D.D.D.D.D.D.D.F.F.M.i.:     k d.B.F.F.D.D.D.D.D.D.D.D.D.D.",
"D.D.D.D.D.D.D.D.F.S.F.F.v.Q % 5 4 & 7.v.F.Z.D.D.D.D.D.D.D.D.D.D.",
"D.D.D.D.D.D.D.D.D.D.D.D.F.f._ -.=.>.j.D.D.D.D.D.D.D.D.D.D.D.D.D.",
"D.D.D.D.D.D.D.D.D.D.D.D.Z.5./ $.$.^ E S.D.D.D.D.D.D.D.D.D.D.D.D.",
"D.D.D.D.D.D.D.D.D.D.D.F.f.1.%.$.&.-.>.f.F.F.D.D.D.D.D.D.D.D.D.D.",
"D.D.D.D.D.D.D.D.D.D.D.Z.0.{  .%.$.-.G 8.Z.D.D.D.D.D.D.D.D.D.D.D.",
"D.D.D.D.D.D.D.D.D.D.F.j._ ;.6 F ^ 9 a j j.F.F.D.D.D.D.D.D.D.D.D.",
"D.D.D.D.D.D.D.D.D.F.B.9.+.[ 5.w.& u.Y P 6.M.F.D.D.D.D.D.D.D.D.D.",
"D.D.D.D.D.D.D.D.D.F.c.>.] 5.G.A.b H.A.B L 6.C.F.D.D.D.D.D.D.D.D.",
"D.D.D.D.D.D.D.D.D.n.4.#.! w.H.A.b H.G.C ^ M b.D.D.D.D.D.D.D.D.D.",
"D.D.D.D.D.D.S.F.Z.3.@.$.@.g u.h.: k.5.K o.+.R S.D.D.D.D.D.D.D.D.",
"D.D.D.D.D.D.F.F.x.2.=.$./ ] 5 , 6 = s `  .=.,.v.D.D.D.D.D.D.D.D.",
"D.D.D.D.D.D.D.S.R O.$.$.$.%.] X.*.| / &.&.$.} 5.S.F.D.D.D.D.D.D.",
"D.D.D.D.D.D.S.f.<.o.%.%.:.~ 0 X...7 ^ :.%.:.X.U j.F.D.D.D.D.D.D.",
"D.D.D.D.D.D.S.T - 6 4 < 5 o   , - . o 8 5 2 1 - Q S.D.D.D.D.D.D.",
"D.D.D.D.D.F.p.f ' ' s @ ) = . F s . - ' J + G ' f d.F.D.D.D.D.D.",
"D.D.D.D.F.V.W 2 8 8 4 > 1 > @ O - * < 8 4 - 6 8 3 7.S.D.D.D.D.D.",
"D.D.D.D.F.z.w J H H H H ( ( F + D H H H H H H H G r b.F.D.D.D.D.",
"D.D.D.D.F.g.; p q q 8 O i q q q q q q q 9 o t q i w b.F.D.D.D.D.",
"D.D.D.D.F.B.8.U h h y + t a h h P P P h u $ d h I 0.V.F.D.D.D.D.",
"D.D.D.D.D.F.B.j.V r.y.X X S j.f.f.f.j.m # t.q.V l.V.S.D.D.D.D.D.",
"D.D.D.D.D.D.D.F.7.v.b.# V N.B.S.F.F.F.y.% Z a.8.F.F.F.D.D.D.D.D.",
"D.D.D.D.D.D.D.S.7.v.M.c V Q m m.F.Z.b.M.N z a.e.D.D.D.D.D.D.D.D.",
"D.D.D.D.D.D.D.F.e.v.F.b.W v e b.F.x.n 7.N 7.f.y.F.F.D.D.D.D.D.D.",
"D.D.D.D.D.D.M.i.C v.F.D.F.z.C b.F.g.l T i.C.x.A s.M.F.D.D.D.D.D.",
"D.D.D.D.D.D.M.A l b.F.D.F.F.b.V.F.z.5.M.F.F.v.x E V.D.D.D.D.D.D."
};
