/* XPM */
static char *E_W[] = {
/* columns rows colors chars-per-pixel */
"32 32 136 2 ",
"   c #000001",
".  c #110D0A",
"X  c #14100B",
"o  c #1C1E1F",
"O  c #241F13",
"+  c #272416",
"@  c #2F2716",
"#  c #302617",
"$  c #332A16",
"%  c #3C331A",
"&  c #242826",
"*  c #262A28",
"=  c #3A3620",
"-  c #313735",
";  c #534719",
":  c #5C4D1C",
">  c #5E511C",
",  c #63531B",
"<  c #67591D",
"1  c #6A5B1B",
"2  c #454026",
"3  c #504722",
"4  c #424537",
"5  c #4D4D3B",
"6  c #6B5C24",
"7  c #716123",
"8  c #786625",
"9  c #7B6A25",
"0  c #686136",
"q  c #7D6F31",
"w  c #2E414A",
"e  c #464D46",
"r  c #494F48",
"t  c #4A5046",
"y  c #4F564B",
"u  c #555642",
"i  c #51594E",
"p  c #5A5D4C",
"a  c #535D53",
"s  c #5C665B",
"d  c #626244",
"f  c #67694E",
"g  c #706D45",
"h  c #676B53",
"j  c #6A6D56",
"k  c #646D5F",
"l  c #6C7058",
"z  c #7A7D56",
"x  c #797C58",
"c  c #677263",
"v  c #6A7565",
"b  c #687568",
"n  c #747C62",
"m  c #707A69",
"M  c #707D70",
"N  c #8E7A1F",
"B  c #917B1F",
"V  c #816F23",
"C  c #837024",
"Z  c #887524",
"A  c #8E7A21",
"S  c #8B7B2A",
"D  c #798269",
"F  c #6D8079",
"G  c #7B8673",
"H  c #778A7C",
"J  c #7E8B79",
"K  c #B59C1D",
"L  c #B89E19",
"P  c #BBA019",
"I  c #99862B",
"U  c #9F8E30",
"Y  c #93893B",
"T  c #A28C25",
"R  c #A6902A",
"E  c #B39B21",
"W  c #AE9E33",
"Q  c #A0953C",
"!  c #B6A42B",
"~  c #AFA13B",
"^  c #B6A437",
"/  c #C2AA1C",
"(  c #CAB11E",
")  c #D7B917",
"_  c #DBBE18",
"`  c #CCB323",
"'  c #EECF0E",
"]  c #FDD902",
"[  c #F6D40B",
"{  c #F9D70B",
"}  c #FAD808",
"|  c #EBCC16",
" . c #E2C61C",
".. c #F0D016",
"X. c #9C9446",
"o. c #848555",
"O. c #ABA352",
"+. c #818B6A",
"@. c #8F9061",
"#. c #9A9A61",
"$. c #93986E",
"%. c #808D7B",
"&. c #8C977E",
"*. c #949C75",
"=. c #869381",
"-. c #8F9B84",
";. c #879B89",
":. c #909D85",
">. c #94A189",
",. c #8FA696",
"<. c #9EAC92",
"1. c #99AD98",
"2. c #A2AF93",
"3. c #A4B194",
"4. c #A6B598",
"5. c #ABBB9D",
"6. c #B0BB9B",
"7. c #ADBDA1",
"8. c #B0BFA0",
"9. c #B4C3A4",
"0. c #BAC8A5",
"q. c #BCCCAC",
"w. c #C0CEAB",
"e. c #C3D2AE",
"r. c #C7D6B2",
"t. c #C8D7B2",
"y. c #CBDAB4",
"u. c #CDDDB8",
"i. c #CFE0B9",
"p. c #D4E3BB",
"a. c #D8E7BD",
"s. c #DAE9BF",
"d. c #DDECC1",
"f. c #DFF1C6",
"g. c #E1EFC2",
"h. c #E2F1C3",
/* pixels */
"g.g.g.g.g.g.g.g.g.g.g.g.g.h.;.w w F d.g.g.g.g.g.g.g.g.g.g.g.g.g.",
"g.g.g.g.g.g.g.g.g.g.g.g.g.h.v     e a.g.g.g.g.g.g.g.g.g.g.g.g.g.",
"g.g.g.g.g.g.g.g.g.g.g.g.g.h.b     r d.d.g.g.g.g.g.g.g.g.g.g.g.g.",
"g.g.g.g.g.g.g.g.g.g.g.g.g.g.b     r s.g.g.g.g.g.g.g.g.g.g.g.g.g.",
"g.g.g.g.g.g.g.g.g.g.g.g.h.h.b     r a.g.g.g.g.g.g.g.g.g.g.g.g.g.",
"g.g.g.g.g.g.g.g.g.g.g.g.g.h.v     r s.h.g.g.g.g.g.g.g.g.g.g.g.g.",
"g.g.g.g.g.g.g.g.g.g.g.g.g.d.l     r p.g.g.g.g.g.g.g.g.g.g.g.g.g.",
"g.g.g.g.g.g.g.g.g.g.g.h.w.M - . X & b 5.h.g.g.g.g.g.g.g.g.g.g.g.",
"g.g.g.g.g.g.g.g.g.g.g.g.d.8.j T E d 5.p.g.g.g.g.g.g.g.g.g.g.g.g.",
"g.g.g.g.g.g.g.g.h.g.g.g.h.2.Q ..} ! &.g.g.g.g.g.g.g.g.g.g.g.g.g.",
"g.g.g.g.g.g.g.g.g.g.g.h.i.*./ ] ] ) @.y.h.g.g.g.g.g.g.g.g.g.g.g.",
"g.g.g.g.g.g.g.g.g.g.g.h.7.Y [ ] ] } W >.h.g.g.g.g.g.g.g.g.g.g.g.",
"g.g.g.g.g.g.g.g.g.g.h.u.$.` ] ] ] ] _ #.r.g.d.g.g.g.g.g.g.g.g.g.",
"g.g.g.g.g.g.g.g.g.g.g.7.Y [ ] ] ] } } W 3.d.h.h.g.g.g.g.g.g.g.g.",
"g.g.g.g.g.g.g.g.g.h.i.o. .} ] ] ] ] ] ..O.6.d.g.g.g.g.g.g.g.g.g.",
"g.g.g.g.g.g.g.g.g.d.5.X.[ } ] ] ] ] ] ] | o.y.h.g.g.g.g.g.g.g.g.",
"g.g.g.g.h.h.h.h.h.5.X.| ] ] ] ] ] ] ] ] } ~ 2.s.g.g.g.g.g.g.g.g.",
"g.g.g.g.h.h.s.h.s.D ( ] ] ] ] ] ] ] ] ] ]  .z p.h.g.g.g.g.g.g.g.",
"g.g.g.g.g.g.h.h.2.Q ' ] ] ] ] ] ] ] ] ] ] { ^ -.d.g.g.g.g.g.g.g.",
"g.g.g.g.g.g.s.a.+./ ] ] ] ] ] ] ] ] ] ] ] ] _ z u.g.g.g.g.g.g.g.",
"g.g.g.g.h.g.h.<.0 E L P K L L L L L L L L P K q %.h.g.g.g.g.g.g.",
"g.g.g.g.h.h.i.D < 1 : @ 6 1 1 1 : # , 1 , # : < z q.h.g.g.g.g.g.",
"g.g.g.g.s.h.1.2 9 C 6 # 8 V V V 6 $ 8 V 9 $ 6 C 3 H f.g.g.g.g.g.",
"g.g.g.g.g.y.D S A A A A A B Z $ 7 B A A N B A A A x e.h.g.g.g.g.",
"g.g.g.g.h.w.% > , , , ; , , , $ ; , , , , ; > , > = 6.h.h.g.g.g.",
"g.g.g.g.h.r.f U R R S % I T T T T T T R I % C R R g 0.h.h.h.g.g.",
"g.g.g.g.h.s.9.n u p p & 4 j j j h h 5 O + 4 p 5 l 3.d.d.g.g.g.g.",
"g.g.g.g.h.h.f.s.=.,.,.- k a.d.a.a.d.0.w o 7.q.M p.d.h.h.g.g.g.g.",
"g.g.g.g.g.g.g.h.:.1.a - 4.g.h.h.a.2.9.%.* 9.r.J s.g.g.g.g.g.g.g.",
"g.g.g.g.g.g.g.h.:.1.s s q.:.e.h.y.t i k D a.e.%.s.g.g.g.g.g.g.g.",
"g.g.g.g.g.g.s.s.-.7.9.c c 4 4.h.y.y m 9.p.h.e.%.p.s.g.g.g.g.g.g.",
"g.g.g.g.g.g.y.G h 8.g.t.2.y 4.h.y.%.y.g.g.h.r.a v 0.h.g.g.g.g.g."
};
