/* XPM */
static char *P[] = {
/* columns rows colors chars-per-pixel */
"32 32 231 2 ",
"   c #08140C",
".  c #0E1818",
"X  c #2C1A12",
"o  c #1A2718",
"O  c #193514",
"+  c #122708",
"@  c #313318",
"#  c #0B1825",
"$  c #0D3227",
"%  c #1C3328",
"&  c #022A39",
"*  c #0E2B2D",
"=  c #2C3828",
"-  c #2A3937",
";  c #333E3A",
":  c #2A2F32",
">  c #482E1A",
",  c #4E3938",
"<  c #145710",
"1  c #294701",
"2  c #37590D",
"3  c #3A5312",
"4  c #3B5519",
"5  c #354511",
"6  c #286605",
"7  c #364828",
"8  c #374438",
"9  c #304F31",
"0  c #31752A",
"q  c #445A19",
"w  c #49560D",
"e  c #486818",
"r  c #526D13",
"t  c #5A7D15",
"y  c #496F0B",
"u  c #647F18",
"i  c #464728",
"p  c #425734",
"a  c #495C24",
"s  c #6A4E3E",
"d  c #4B6424",
"f  c #536A26",
"g  c #5A7325",
"h  c #526D36",
"j  c #667F35",
"k  c #687D27",
"l  c #01294C",
"z  c #023647",
"x  c #083753",
"c  c #2E3C50",
"v  c #00336A",
"b  c #114654",
"n  c #3D5255",
"m  c #314D4A",
"M  c #09607E",
"N  c #276854",
"B  c #415353",
"V  c #41585C",
"C  c #4E4E50",
"Z  c #71564D",
"A  c #7E654F",
"S  c #626A79",
"D  c #747479",
"F  c #69736B",
"G  c #8B653E",
"H  c #815F55",
"J  c #9D684B",
"K  c #8E7453",
"L  c #B07158",
"P  c #886C66",
"I  c #836A7D",
"U  c #B17974",
"Y  c #BE7A6F",
"T  c #309E3D",
"R  c #68891A",
"E  c #76990F",
"W  c #4A8B32",
"Q  c #6A8327",
"!  c #759325",
"~  c #6D8639",
"^  c #7A9733",
"/  c #6C922D",
"(  c #78A129",
")  c #2BA25E",
"_  c #36B46B",
"`  c #43A955",
"'  c #638667",
"]  c #778373",
"[  c #6CA862",
"{  c #4B8471",
"}  c #86AC0E",
"|  c #80A20D",
" . c #8CB40C",
".. c #82B706",
"X. c #94BB0B",
"o. c #86AC14",
"O. c #85AB1C",
"+. c #88AE1C",
"@. c #84AA16",
"#. c #8CB415",
"$. c #8DB41B",
"%. c #89BB18",
"&. c #93BB14",
"*. c #90B61D",
"=. c #93BA1C",
"-. c #97BA19",
";. c #A2B116",
":. c #809E22",
">. c #8AAC23",
",. c #89AB2B",
"<. c #92AC29",
"1. c #8EB423",
"2. c #8EB22A",
"3. c #87B726",
"4. c #91B622",
"5. c #94BB23",
"6. c #99BE24",
"7. c #93B52A",
"8. c #95BA2A",
"9. c #9ABE2B",
"0. c #99B127",
"q. c #89AB32",
"w. c #8DB534",
"e. c #96BA32",
"r. c #98B836",
"t. c #A6B723",
"y. c #96C016",
"u. c #97C01A",
"i. c #9BC31C",
"p. c #9EC91D",
"a. c #9EC711",
"s. c #89C316",
"d. c #A1C81C",
"f. c #9AC225",
"g. c #9CC32A",
"h. c #9AC423",
"j. c #9DC332",
"k. c #9EC23A",
"l. c #89C529",
"z. c #A3C92D",
"x. c #A2C727",
"c. c #A3C733",
"v. c #A2D339",
"b. c #978257",
"n. c #A3815C",
"m. c #808871",
"M. c #BB8664",
"N. c #B58A72",
"B. c #B5936A",
"V. c #93BD7E",
"C. c #D6825D",
"Z. c #F0935B",
"A. c #D79976",
"S. c #D39768",
"D. c #EE9C6B",
"F. c #F49B73",
"G. c #FB9C62",
"H. c #F4A56B",
"J. c #ECA673",
"K. c #E8A47B",
"L. c #F8A577",
"P. c #E8B17D",
"I. c #A2C140",
"U. c #FFC07C",
"Y. c #084E9A",
"T. c #0557B8",
"R. c #1853B4",
"E. c #094FA9",
"W. c #0A70B6",
"Q. c #1B729B",
"!. c #705D8A",
"~. c #6C7788",
"^. c #757B89",
"/. c #0262C1",
"(. c #0F7ED8",
"). c #1150C2",
"_. c #807E8C",
"`. c #8673AB",
"'. c #1D8C9D",
"]. c #1E88B5",
"[. c #0E8EB3",
"{. c #2894B7",
"}. c #2B8D98",
"|. c #7E8587",
" X c #53B393",
".X c #60C09A",
"XX c #088FCA",
"oX c #0485E8",
"OX c #0093EF",
"+X c #818899",
"@X c #888E8E",
"#X c #95A0A6",
"$X c #A2B0B5",
"%X c #C29880",
"&X c #C9A487",
"*X c #E9A683",
"=X c #F9B387",
"-X c #EBB798",
";X c #E9B386",
":X c #F7BDA8",
">X c #A4D49A",
",X c #B4C1AF",
"<X c #F6C393",
"1X c #CEC2AB",
"2X c #F1C8AB",
"3X c #ACB4C1",
"4X c #BBC3CE",
"5X c #C0CADD",
"6X c #D7D9DA",
"7X c #D0D0D0",
"8X c #F6DBCA",
"9X c #E6DACA",
"0X c #F8E5CC",
"qX c #FFEDD2",
"wX c #FBEADA",
"eX c #FDF2DC",
"rX c #CED8E2",
"tX c #D5DDE8",
"yX c #DAE3EC",
"uX c #E2ECE9",
"iX c #FAE4EA",
"pX c #FDFCEC",
"aX c #FBF8E8",
"sX c #ECFAFC",
"dX c #FFF6F2",
"fX c #F3FCF3",
"gX c #FFFCF4",
"hX c #F3FDFD",
"jX c #FBFDFE",
"kX c #F8F4F9",
"lX c #F7EAFB",
/* pixels */
"5.5.$.$.=.=.=.h.*.6.#.$.6. .#.r.&.o.+.9.=.*.*.5.5.g.4.4.6.5.5.$.",
"5.*.$.$.&.$.&.u.i.5.c.#.&.i.*.8.$.$.i.} *.$.f.#.5.6.6.g.6.o.*.$.",
"$.$.$.*.*.=.$.&.-.5.r.>.*.&.-.x.=.*.6.$.f.} #.d.$.6.g.5.$.*.f.$.",
"$.4.6.6.h.*.$.*.@.6.E f j E a.8.&.r.~ g R t.&.+.4.*.$.$.o.h.j.5.",
"5.g.g.6.5.*.$.f.8.:.f ; p r <.r.O.k p 8 q ! <.-.g.E @.*.$.$.h.j.",
"6.g.f.*.$.4.5.j.>.5 @XtX7XD a ! g a ,XtX$X7 u x.h.o.*.5.$.$.6.g.",
"=.*.*.%.+.*.8.1.^ o +XhXjX^.  1 . p uXhX5X8 f e.*.=.f.4.$.*.*.4.",
"u.o.=.5.o.+.+.E h F 4XfXhX3XS F S +XuXlXyXD f k 5.*.=.*.5.5.$.=.",
"$.4.=.=.$.&.8.3 n 6XpXdXhXhXhXhXjXsXjXfXjXhX#X9 ~ ,.p.&.f.f.*. .",
"1.$.#.5.8.p.j.4 n yXgXfXhXgXdXaXjXdXfXaXpXgXfX$X7 R f.=.4.4.&.=.",
"+.@. .4.8.i.j.4 n 6XjXfXaX8X:X2X-X2X1X2X-X2XaX7Xc f 2.4.1.*.%.&.",
"$.+.&.h.5.u.g.d n 6XjXpX8X-XK.K.J.J.J.D.D.=X2X&Xm d 2.&.$.=.$.4.",
"4.$.=.u.1.&.5.q B 6XjXwX-XK.J.B.S.H.G.G.D.N.&XC.- e $.&.&.6.$.5.",
"8.+.$.=.$.y.$.3 n rXkX8X=XF.L > Z *XH.=XN., P Y = r $.X.u.h.5.$.",
"8.4.h.h.5.p.8.4 n rXjX0X=XD.J X Z ;X=X=XP X Z L 8 t *.&.g.z.h.*.",
"+.*.h.g.5.h.9.4 n rXjX0XK.C.Y I M.*XL.J.A.J L L % j k.g.9.5.=.%.",
"X.8.e.=. .&.k.w C 6XjXlX2XH.H.H.L.F.D.F.F.H.<XA.- e g.&.+.5.o.&.",
"&.1.4.&.5.8.^ 3 C 9XpXpXeX2X=X=X;X;X;X;XP.-XqX7X; d j.u.$.5.$.4.",
"7.8.y.a.w.^ 2   n 6XpXfXhXhXiXiXqX0XeXqX0XaXhX4X7 f 2.5.=.=.4.2.",
"7.c.a.p.e p j ' ' D D ^.~.^.F @X] ^.~.~.] +X+XF f ! O.+.h.y.h.>.",
"h.c.X.5.O m >X>X{ b l v v m 9 z z v v N m . . o q.8.4.+.8.f.x.=.",
"d.9. .e.* m [ h b Q.{.[.Q. X.X[.W.XXXX X[ $ o 7 ! @.5.$.3.=.p.&.",
"-.<.X.0.o 9 W < - @X1X|.m 0 _ {.OXOXXX_ T @ Z L 4 t *.$.1.4.=.&.",
"$.q.i.=.o 9 W < , A.U.C.> 1 T [.XXOXXX) 6 X U D.c d 5.y.$.5.4.*.",
"6.| 9.,.y 2 9 9 p D N.H b Y.'.].oXoX(.}.N $ C G w ! k.6.&.&.#.5.",
"&.6.&.( ,./ 2 2 e $   * R.W.Y.).T.R.T./.E.l @ p q.j.j.=.#.$.+.1.",
"-. .-.h.l.w.( y $ # # v E.Y.z & & $ & Y.R.z e w.l.9.*.#.5.$.4.e.",
"-.-.u.u.u.h.j.$.R R @ c @XZ o r Q d o !.`.: e 6. .&.} =.f.$.5.4.",
"5.c.=.$.h.h.g.=.q.@.w s B.A i ! 5.Q 5 K b.i u 7.$.h.} $.f.u.h. .",
"c.8.5.6.#.=.z.o.2.#.*.8.2.2.4.E X.6.g.v.f.-.t.t.$.5.+.*.4.=.g.u.",
"g.6.=.4.1.*.=.=.f.$.E %.l.l.$.=.%.&.a.l.3.z.p.%.+.4.=.=.$.$.h.u.",
"=.=.#.*.0.*.#.-.=.X.d.c.h.+.<.;.2.&. .t.<.3.s...4.*.$.=.=.*.5.1."
};
