/* XPM */
static char *P_DEAD[] = {
/* columns rows colors chars-per-pixel */
"32 32 69 1 ",
"  c #573E2E",
". c #5A4434",
"X c #584739",
"o c #5C4A3A",
"O c #604835",
"+ c #604C3D",
"@ c #5D4D41",
"# c #5F5145",
"$ c #5B544B",
"% c #5F584F",
"& c #624E40",
"* c #645244",
"= c #695546",
"- c #645649",
"; c #695748",
": c #66594B",
"> c #6A5C4D",
", c #705F4F",
"< c #625C53",
"1 c #6D5E51",
"2 c #705F50",
"3 c #666057",
"4 c #6C6154",
"5 c #666058",
"6 c #6C655B",
"7 c #6D685E",
"8 c #716254",
"9 c #7D6E55",
"0 c #71665B",
"q c #75695D",
"w c #786D5E",
"e c #6F6B61",
"r c #756D63",
"t c #7A6E61",
"y c #777064",
"u c #797165",
"i c #777168",
"p c #7C756B",
"a c #7F796D",
"s c #7C7771",
"d c #7D7972",
"f c #827B6D",
"g c #837D71",
"h c #8F866E",
"j c #868176",
"k c #89857A",
"l c #9B9377",
"z c #A3A07F",
"x c #8D8B83",
"c c #918F86",
"v c #919087",
"b c #939189",
"n c #A19F83",
"m c #ACA987",
"M c #A5A589",
"N c #A8A78A",
"B c #ADAB89",
"V c #B2B28E",
"C c #B2B392",
"Z c #B4B997",
"A c #B5BA98",
"S c #C4C9A2",
"D c #C8CEA7",
"F c #CDD4AB",
"G c #D4DEB4",
"H c #DEEABE",
"J c #DFECC0",
"K c #E1EFC2",
"L c #E2F0C3",
/* pixels */
"KKKKKKKKKGVmmmmBBBmmmVGKKKKKKKKK",
"KKKKKKKKKZfffffffffft9VHKKKKKKKK",
"KKKKKKKKHVfxfqqqr02ff8zHKKKKKKKK",
"KKKKKKKKKCfk,O=&&=&;ffzHKKKKKKKK",
"KKKKKKKKHVfg222>22e1iqzHKKKKKKKK",
"KKKKKKKKKVfg2>8ff202t0zHKKKKKKKK",
"KKKKKKKKFlfg,=fjgf22i1fSHLKKKKKK",
"KKKKKKLDh8fk2&=0q=;2t>OfSLKKKKKK",
"KKKKKKLNptfk8812,>q7y:.:ZLKKKKKK",
"KKKKKKLMatfj8qq2,qy8y:.:ZLKKKKKK",
"KKKKKKLMatpg8rr1,qp7y:.>ZLLKKKKK",
"KKKKLLLMptfg2rt=*ypqy-.>ALLLKKKK",
"KKKKKKLMpwpg,tstydaqy:.>ZLKKKKKK",
"KKKKKKLMptpg,rdsddpqy-.>ZLKKKKKK",
"KKKKKKLMptug>rssdds7y-.>ZLKKLKKK",
"KKKKKKLMpwuf,rasddp0t:o>ALKKKKKK",
"KKKKKKKMptip>0isddp7y:X>ALLLLLLL",
"KKKKKKKMptrf;1errrr6y:o>ALLHHLLH",
"KKKKKKKNprif;1rrirr0u:o>ALLLLLLL",
"KKKKKKKMuqig;<e17670u:o>ALLLLLHL",
"KKKKKKKNptrf--1e0ee2s1+>ZLLJJJLL",
"KKKKKKKNp0ig2110822qf<o>ALLLLLLJ",
"KKKKKKKMu0icbbvvbcbbx8o<ALJLLLLJ",
"KKKKKKKMi0fxxxxxxxxxkp*1ALLLJJLL",
"KKKKKKLMy84445443%4<3>+>ALKKKKKK",
"KKKKKKLni8.. . .......+4ZLKKKKKK",
"KKKKLLLMpa*###@#X++$oX+4ZKKKKKKK",
"KKKKLLLnpf>35<<<<%%<%o%>ZKKKKKKK",
"KKKKKKLnig:433<3<%$$%+:4AKKKKKKK",
"KKKKKKLnyj---%#++oXX++47AKKKKKKK",
"KKKKKLLnygw84844,344>4e7ZKKKKKKK",
"KKKKKLLn7e77777777777777AKKKKKKK"
};
