/* XPM */
static char *spr_background_space_2[] = {
/* columns rows colors chars-per-pixel */
"29 32 211 2 ",
"   c #000001",
".  c #02030B",
"X  c #080A0B",
"o  c #010114",
"O  c #0B0A11",
"+  c #01011C",
"@  c #020E1B",
"#  c #100E12",
"$  c #04111D",
"%  c #0B151F",
"&  c #151414",
"*  c #18191B",
"=  c #24221C",
"-  c #020223",
";  c #03042C",
":  c #080928",
">  c #11092E",
",  c #051320",
"<  c #0B1625",
"1  c #040734",
"2  c #0B0334",
"3  c #04013C",
"4  c #0D033D",
"5  c #040B3B",
"6  c #0B0C3E",
"7  c #051637",
"8  c #1C1C3A",
"9  c #192226",
"0  c #04303D",
"q  c #262827",
"w  c #2C302D",
"e  c #31322C",
"r  c #393629",
"t  c #2C2B35",
"y  c #353938",
"u  c #433F29",
"i  c #3C423C",
"p  c #514B2E",
"a  c #494532",
"s  c #524D37",
"d  c #5A5437",
"f  c #565139",
"g  c #625A38",
"h  c #756738",
"j  c #020142",
"k  c #020846",
"l  c #0D0D44",
"z  c #160C44",
"x  c #061646",
"c  c #0B1045",
"v  c #0B124D",
"b  c #0A1D4C",
"n  c #18124A",
"m  c #030958",
"M  c #081858",
"N  c #171457",
"B  c #391E4B",
"V  c #072149",
"C  c #0A2157",
"Z  c #2E2B4C",
"A  c #0B0E6B",
"S  c #071866",
"D  c #062367",
"F  c #12236B",
"G  c #1E316D",
"H  c #0C2A77",
"J  c #172B77",
"K  c #302E62",
"L  c #453769",
"P  c #713679",
"I  c #3C4D72",
"U  c #505346",
"Y  c #46455A",
"T  c #585756",
"R  c #715D55",
"E  c #6B674A",
"W  c #756A42",
"Q  c #7A6F42",
"!  c #6E6A5F",
"~  c #59526E",
"^  c #4A4D79",
"/  c #53507A",
"(  c #775B7B",
")  c #716D72",
"_  c #86794A",
"`  c #8C7F50",
"'  c #857C67",
"]  c #4E837F",
"[  c #EDC735",
"{  c #F1CB31",
"}  c #988547",
"|  c #8C855C",
" . c #9E8F57",
".. c #AA8848",
"X. c #AB9346",
"o. c #B89E4D",
"O. c #A79455",
"+. c #BEA34F",
"@. c #BAA459",
"#. c #918D6E",
"$. c #A59965",
"%. c #A39D70",
"&. c #B5A96D",
"*. c #C9944D",
"=. c #D4B94F",
"-. c #C0A555",
";. c #C5A955",
":. c #C5AC5A",
">. c #C7B85D",
",. c #CDB26B",
"<. c #C5B878",
"1. c #EAC742",
"2. c #D4C47C",
"3. c #E7CC66",
"4. c #E4CC72",
"5. c #EBD27A",
"6. c #011988",
"7. c #0B2789",
"8. c #0F3080",
"9. c #15368A",
"0. c #05259A",
"q. c #183B97",
"w. c #293E8C",
"e. c #3B358A",
"r. c #1237AC",
"t. c #095D8E",
"y. c #1A419B",
"u. c #2B4690",
"i. c #346A9E",
"p. c #1B41A2",
"a. c #1C45AC",
"s. c #1150AA",
"d. c #1948B7",
"f. c #224BB2",
"g. c #224BB7",
"h. c #0A7CBA",
"j. c #1877B9",
"k. c #6B5C83",
"l. c #59689C",
"z. c #6A6288",
"x. c #676A91",
"c. c #747091",
"v. c #6F43A6",
"b. c #5369A7",
"n. c #6C75B9",
"m. c #174ACB",
"M. c #1750D5",
"N. c #2351C3",
"B. c #2556CB",
"V. c #2659D6",
"C. c #325CD0",
"Z. c #3565C7",
"A. c #3063D0",
"S. c #446FCB",
"D. c #AC39AA",
"F. c #827F9B",
"G. c #A842B1",
"H. c #B847B5",
"J. c #BE56BA",
"K. c #856EA3",
"L. c #BC63B7",
"P. c #C24BBE",
"I. c #C76FBE",
"U. c #BC59C2",
"Y. c #B363C7",
"T. c #C74FC3",
"R. c #C651C3",
"E. c #CA7AC7",
"W. c #0995AE",
"Q. c #2092BE",
"!. c #0CAFB9",
"~. c #518E89",
"^. c #649D9B",
"/. c #7684AD",
"(. c #6096A1",
"). c #62BFAE",
"_. c #74C7BE",
"`. c #4687C6",
"'. c #6789C2",
"]. c #7B9AD8",
"[. c #6FAEC8",
"{. c #6B8BE1",
"}. c #74C8C1",
"|. c #858488",
" X c #948E99",
".X c #B1AA8D",
"XX c #8E94A4",
"oX c #9695A1",
"OX c #9EA7AD",
"+X c #AFACB5",
"@X c #C5B583",
"#X c #D7C88C",
"$X c #EAD686",
"%X c #F0DA85",
"&X c #979EDC",
"*X c #BE8ACC",
"=X c #B1B3C9",
"-X c #859FE3",
";X c #93B5E2",
":X c #DBACDB",
">X c #86C5C9",
",X c #A1D3E7",
"<X c #9BE1E6",
"1X c #AFE4EA",
"2X c #C6C5D2",
"3X c #D1CDD2",
"4X c #DFDEE5",
"5X c #D2EBF1",
"6X c #E9E8EB",
"7X c #EDF1F8",
"8X c #F4F6F8",
/* pixels */
", , , , , $ , $ , @ , U &.%X$X$X%.y , $ $ $ $ $ , , , , , ",
", , , , < $ $ $ $ w | #X$.f r f $.>.E 9 $ $ $ $ $ $ , $ $ ",
"$ $ , , $ $ $ 9 E 2.&.s O + - o & g ,.@.f , @ @ $ $ $ $ $ ",
"$ , $ $ $ < U &.<.W * o 1 6 6 6 : o 9 Q ,.} e , $ $ $ $ $ ",
"$ $ @ @ y $.2.| q O > l l l c l c 1 - . r  .>.Q 9 $ $ $ $ ",
"$ @ q ' 2.$.r X + 4 4 z l z c z c c 5 ; o O p O.+.d * $ $ ",
"@ i <.<.d # + 2 l K z.x./ K v v v x c 1 ; - . & h @.} = @ ",
"y <.` = o : 4 n c.4X7X4X4X=Xx.F v v x k Z t - + X q O.} 9 ",
"%.&.& o 2 4 4 z.7X2X~ Z Y oX6Xx.M N M b ' ..> ; + o = @.W ",
"#XE . 2 4 z B 2X3XY @ + + : |.=XG F S ^ ,.*.8 1 1 ; . _ @.",
"$Xf o 2 4 4 / 6X X8 - - + : ) *Xe.J J ^ ,.R x x x 5 o W :.",
"%Xf + 2 4 z F.8X) - + + > ( I.T.v.q.q.w.L G D M M x + W ;.",
"%XU o 3 3 3 ^ 7XF.t B B P R.T.T.n.W.s.u.9.8.H H D D : W ;.",
"%Xd o 3 4 j N K.E.J.J.U.D.J.T.U.`.!.j.a.p.y.q.9.8.H : W ;.",
"%Xf + 3 j j k N G.T.T.T.D.H.T.T.U.'.j.g.f.a.p.q.q.9.7 h ;.",
"5.d + 3 j j m m b.K.T.T.H.D.T.T.Y.&XZ.B.g.d.d.a.a.q.7 W ;.",
"5.d + 2 K z.N D !.`.P.P.J.D.J.*XS.C.V.C.V.A.Z.g.g.s.7 W :.",
"5.d + c.2X6Xz.S W./.R.L.E.E.:X1X,X].C.V.S.[.>X`.B.g.V W ;.",
"4.f > +X8X3Xk.m t.[.n.-X5X7X7X,X7X7X{.V.'.OX}.).A.N.V W ;.",
"4.d o ~  XL A m S u.0.i.<X1X].C.-X8X;XV.Z.(.}._.`.V.V Q ;.",
"4.d o ; 2 5 3 j k m m F XXOXu.7.u.+X/.y.y.I ] ~.i.q.7 W ;.",
",.d             . .   O = q t q Z q O . . X X X X . . Q :.",
"@.` X                 y T c..X^.) a                 O O.O.",
"s :.u                 e T T ! U y *               X d +.u ",
"% h :.W *     + - - : ; : 7 0 V 7 x b M C V $ X = _ ;.p # ",
"$ $ d o.@.s O ; m 6.6.0.0.s.!.h.m.m.M.M.d.C % g @.X.a @ @ ",
"$ $ $ 9 h ;. .r + k 6.0.r.s.).Q.m.m.d.H < a o.+.g * @ @ @ ",
"$ , $ $ $ r _ :._ q 5 7.a.b.>.^.B.a.b w } -.h q @ % @ @ @ ",
", $ , $ $ @ % a X.@.! l..X=.[ =.%./.#.:.} r # X @ @ $ $ @ ",
", , , , $ % $ @ 9 d -.@X.X1.{ [ <.@Xo.s % @ $ $ # @ $ $ $ ",
", , , , , , $ $ $ $ w _ #X3.[ 1.@XQ 9 @ $ $ $ $ $ $ $ $ $ ",
", , , , , , , $ $ $ $ 9 ) $.! } E < @ , $ $ $ $ $ $ $ $ $ "
};
